<svg id="Layer_1" data-name="Layer 1" xmlns="http://www.w3.org/2000/svg" viewBox="0 0 436.09 100.71"><title>svgs</title><path d="M17.3,10.3c.07,0,.1.07.1.2V56.3a.33.33,0,0,0,.2.3l8.3,4.7a.5.5,0,0,1,0,.6l-8.3,4.8h-.3l-8.6-5a.4.4,0,0,1-.1-.3V15.6c0-.07-.07-.13-.2-.2L.2,10.6c-.13-.07-.2-.15-.2-.25s.07-.18.2-.25L8.4,5.3q.19-.1.3,0Zm4.6,3.2c0-.4.17-.5.5-.3l8.2,4.7a.33.33,0,0,1,.2.3V48.6a.33.33,0,0,1-.2.3l-8.2,4.8c-.33.13-.5,0-.5-.3Z"/><path d="M67,28.4V59.3a.65.65,0,0,0,.2.5l3.1,1.7a.57.57,0,0,1,0,1l-7.2,4.2a.88.88,0,0,1-.6,0l-7.2-4.2a.73.73,0,0,1,0-1l3.1-1.7a.58.58,0,0,0,.3-.5V33.2l-7.5-4.3a.62.62,0,0,0-.55.05.48.48,0,0,0-.25.45V59.3a.65.65,0,0,0,.2.5l3.1,1.7a.57.57,0,0,1,0,1l-7.2,4.2a.88.88,0,0,1-.6,0l-7.2-4.2a.72.72,0,0,1,0-1l3.1-1.7a.58.58,0,0,0,.3-.5V33.6a.46.46,0,0,0-.3-.5l-7.2-4.2a.49.49,0,0,1,0-.9l7.2-4.2c.2-.13.37-.13.5,0l7.8,4.5a.62.62,0,0,0,.5,0l2.8-1.6,5-2.9a.37.37,0,0,1,.5,0l8,4.6Z"/><path d="M92.5,28.2a.88.88,0,0,1-.4.1H85.2a.71.71,0,0,0-.8.8V57.3a.71.71,0,0,0,.4.7l6.3,3.6a.68.68,0,0,1,.4.65.92.92,0,0,1-.4.75l-6.3,3.6a.67.67,0,0,1-.7,0L77,62.5a.71.71,0,0,1-.4-.7V29.1a.71.71,0,0,0-.8-.8H71.7a.75.75,0,0,1-.4-1.4L76.2,24a.73.73,0,0,0,.4-.7V19.7A.85.85,0,0,1,77,19l6.3-3.6a.87.87,0,0,1,.8,0,.73.73,0,0,1,.4.7V23c0,.53.23.8.7.8h12a.71.71,0,0,1,.75.6.75.75,0,0,1-.35.9Z"/><path d="M119,35.6l-12.1,7a.58.58,0,0,0-.3.5V54.8l11.7,6.7a.73.73,0,0,1,0,1l-7.2,4.1a.51.51,0,0,1-.6,0L98.6,59.7a.39.39,0,0,1-.3-.4V33.5a.39.39,0,0,1,.3-.4l7.8-4.6.3-.1,7.9-4.6a.51.51,0,0,1,.6,0l11.3,6.5a.57.57,0,0,1,0,1Zm-12.1-6.7a.58.58,0,0,0-.3.5V41.2a.48.48,0,0,0,.3.45.54.54,0,0,0,.5.05l10.3-5.9a.72.72,0,0,0,0-1l-10.3-5.9A.37.37,0,0,0,106.9,28.9Z"/><path d="M141.6,30.7a.32.32,0,0,0-.2.3V59.6l3.6,2.1a.33.33,0,0,1,0,.6l-7.6,4.4q-.21.1-.3,0l-7.6-4.4a.32.32,0,0,1,0-.6l3.4-2a.33.33,0,0,0,.2-.3V31c0-.07-.07-.17-.2-.3l-3.4-2c-.14-.07-.2-.15-.2-.25s.06-.18.2-.25l3.6-2.1,4-2.3q.09-.11.3,0l4,2.3,1.9,1q.09.11.3,0l5.9-3.3q.09-.11.3,0l7.6,4.4c.13.07.2.15.2.25s-.07.18-.2.25l-7.6,4.4q-.21.1-.3,0l-5.9-3.4h-.3Z"/><path d="M188.7,28.4V59.3a.65.65,0,0,0,.2.5l3.1,1.7a.57.57,0,0,1,0,1l-7.2,4.2a.88.88,0,0,1-.6,0L177,62.5a.73.73,0,0,1,0-1l3.1-1.7a.58.58,0,0,0,.3-.5V33.2l-7.5-4.3a.62.62,0,0,0-.55.05.48.48,0,0,0-.25.45V59.3a.65.65,0,0,0,.2.5l3.1,1.7a.57.57,0,0,1,0,1l-7.2,4.2a.88.88,0,0,1-.6,0l-7.2-4.2a.72.72,0,0,1,0-1l3.1-1.7a.58.58,0,0,0,.3-.5V33.6a.46.46,0,0,0-.3-.5l-7.2-4.2a.49.49,0,0,1,0-.9l7.2-4.2a.37.37,0,0,1,.5,0l7.8,4.5a.62.62,0,0,0,.5,0l2.8-1.6,5-2.9a.37.37,0,0,1,.5,0l8,4.6Z"/><path d="M215.4,35.6l-12.1,7a.58.58,0,0,0-.3.5V54.8l11.7,6.7a.72.72,0,0,1,0,1l-7.2,4.1a.51.51,0,0,1-.6,0L195,59.7a.39.39,0,0,1-.3-.4V33.5a.39.39,0,0,1,.3-.4l7.8-4.6.3-.1,7.9-4.6a.51.51,0,0,1,.6,0l11.3,6.5a.57.57,0,0,1,0,1Zm-12.1-6.7a.58.58,0,0,0-.3.5V41.2a.48.48,0,0,0,.3.45.54.54,0,0,0,.5.05l10.3-5.9a.72.72,0,0,0,0-1l-10.3-5.9A.37.37,0,0,0,203.3,28.9Z"/><path d="M245.2,28.2a.88.88,0,0,1-.4.1h-6.9a.71.71,0,0,0-.8.8V57.3a.71.71,0,0,0,.4.7l6.3,3.6a.68.68,0,0,1,.4.65.92.92,0,0,1-.4.75l-6.3,3.6a.67.67,0,0,1-.7,0l-7.1-4.1a.71.71,0,0,1-.4-.7V29.1a.71.71,0,0,0-.8-.8h-4.1a.7.7,0,0,1-.75-.55.69.69,0,0,1,.35-.85l4.9-2.9a.73.73,0,0,0,.4-.7V19.7a.85.85,0,0,1,.4-.7l6.3-3.6a.87.87,0,0,1,.8,0,.73.73,0,0,1,.4.7V23c0,.53.23.8.7.8h12a.71.71,0,0,1,.75.6.75.75,0,0,1-.35.9Z"/><path d="M306.4,41.4l.1,14.7a.58.58,0,0,1-.3.5l-8.6,5L289,66.5a.51.51,0,0,1-.6,0l-8.6-4.9-8.6-5a.46.46,0,0,1-.3-.5V46.5a.58.58,0,0,1,.3-.5l7.7-4.4a.57.57,0,0,1,.6-.05.56.56,0,0,1,.3.55V51a.58.58,0,0,0,.3.5l8.6,5,8,4.6a.88.88,0,0,0,.6,0,.67.67,0,0,0,.3-.6v-14a.58.58,0,0,0-.3-.5l-8.6-4.9-8.9-5.2L271.2,31a.58.58,0,0,1-.3-.5V15.8a.46.46,0,0,1,.3-.5l1.8-1.1,11.9-6.9,3.5-2a.88.88,0,0,1,.6,0l8.5,5,8.6,5a.46.46,0,0,1,.3.5v9.6a.58.58,0,0,1-.3.5l-7.7,4.4a.57.57,0,0,1-.6.05.56.56,0,0,1-.3-.55V20.9a.69.69,0,0,0-.2-.5l-8.6-5-8-4.6a.51.51,0,0,0-.6,0,.58.58,0,0,0-.3.5v14a.67.67,0,0,0,.3.6l8.6,4.9,8.8,5.1,8.6,5A.58.58,0,0,1,306.4,41.4Z"/><path d="M330.49,28.2a.81.81,0,0,1-.39.1h-6.91a.7.7,0,0,0-.79.8V57.3a.71.71,0,0,0,.4.7l6.3,3.6a.68.68,0,0,1,.39.65.91.91,0,0,1-.39.75l-6.3,3.6a.67.67,0,0,1-.7,0L315,62.5a.72.72,0,0,1-.39-.7V29.1a.71.71,0,0,0-.8-.8h-4.11a.71.71,0,0,1-.75-.55.7.7,0,0,1,.36-.85l4.89-2.9a.72.72,0,0,0,.41-.7V19.7A.87.87,0,0,1,315,19l6.31-3.6a.87.87,0,0,1,.8,0,.72.72,0,0,1,.39.7V23c0,.53.24.8.7.8h12a.7.7,0,0,1,.75.6.73.73,0,0,1-.34.9Z"/><path d="M365,30.7a.39.39,0,0,0-.3.4V56.9a.39.39,0,0,0,.3.4l7.2,4.2a.57.57,0,0,1,0,1L365,66.6a.37.37,0,0,1-.5,0l-7.8-4.5a.62.62,0,0,0-.5,0l-2.8,1.7-5,2.8a.37.37,0,0,1-.5,0l-8.1-4.6V31.1a.4.4,0,0,0-.2-.4l-3.1-1.8a.57.57,0,0,1,0-1l7.2-4.1a.51.51,0,0,1,.6,0l7.2,4.1a.73.73,0,0,1,0,1l-3.1,1.8a.39.39,0,0,0-.3.4V57.2l7.5,4.3a.49.49,0,0,0,.55,0,.58.58,0,0,0,.25-.55V31.1a.4.4,0,0,0-.2-.4l-3.1-1.8a.57.57,0,0,1,0-1l7.2-4.1a.51.51,0,0,1,.6,0l7.2,4.1a.72.72,0,0,1,0,1Z"/><path d="M391.39,5.15a.56.56,0,0,0-.3.55V23.3c0,.33.2.5.6.5h12.5a.46.46,0,0,1,.5.4.5.5,0,0,1-.2.6l-6.4,3.7a.38.38,0,0,1-.3.1h-6.2a.44.44,0,0,0-.5.5V59.3a.58.58,0,0,0,.3.5l3,1.7a.57.57,0,0,1,0,1l-7.2,4.1c-.13.13-.3.13-.5,0l-7.2-4.1a.72.72,0,0,1,0-1l3.1-1.7a.65.65,0,0,0,.2-.5V29.1a.44.44,0,0,0-.5-.5h-7a.54.54,0,0,1-.6-.4.66.66,0,0,1,.3-.7l6.3-3.6a.78.78,0,0,1,.3-.1h.7a.44.44,0,0,0,.5-.5V9.8a.58.58,0,0,1,.3-.5l8-4.6,8-4.6c.2-.13.37-.13.5,0l7.2,4.1a.57.57,0,0,1,0,1l-7.2,4.1c-.13.13-.3.13-.5,0l-7.2-4.1A.4.4,0,0,0,391.39,5.15Z"/><path d="M420.39,5.15a.56.56,0,0,0-.3.55V23.3c0,.33.2.5.6.5h12.5a.47.47,0,0,1,.5.4.5.5,0,0,1-.2.6l-6.4,3.7a.4.4,0,0,1-.3.1h-6.2a.44.44,0,0,0-.5.5V59.3a.58.58,0,0,0,.3.5l3,1.7a.57.57,0,0,1,0,1l-7.2,4.1c-.13.13-.3.13-.5,0l-7.2-4.1a.72.72,0,0,1,0-1l3.1-1.7a.69.69,0,0,0,.2-.5V29.1a.44.44,0,0,0-.5-.5h-7a.54.54,0,0,1-.6-.4.63.63,0,0,1,.3-.7l6.3-3.6a.69.69,0,0,1,.3-.1h.7a.44.44,0,0,0,.5-.5V9.8a.58.58,0,0,1,.3-.5l8-4.6,8-4.6c.2-.13.37-.13.5,0l7.2,4.1a.57.57,0,0,1,0,1l-7.2,4.1c-.13.13-.3.13-.5,0l-7.2-4.1A.4.4,0,0,0,420.39,5.15Z"/><path d="M33.71,91.25c0-7.54,3.21-9.32,5.95-9.46a.39.39,0,0,1,.46.36l.07,1.59a.41.41,0,0,1-.29.43c-2.35.62-3.24,3.09-3.24,7.08s.89,6.43,3.24,7a.41.41,0,0,1,.29.46l-.07,1.56a.43.43,0,0,1-.46.39C36.92,100.51,33.71,98.78,33.71,91.25Z"/><path d="M51.28,90.43v-.05l-.51-.55a4.79,4.79,0,0,1-1.63-3.45c0-1.83,1.51-3.89,4.54-3.89,2.68,0,4.53,1.75,4.53,3.91,0,2.47-2.45,3.94-2.93,4.37L58,93.55a10.38,10.38,0,0,0,.87-2.66c.09-.51.24-.77.79-.6l1.32.38c.63.17.46.7.41.94a16.3,16.3,0,0,1-1.49,3.81l2.14,2c.29.29.53.55,0,1.1l-1,1A.7.7,0,0,1,60,99.48l-1.73-1.75a6.9,6.9,0,0,1-5.23,2C50,99.77,48,97.7,48,95.26,48,92.09,50.84,90.7,51.28,90.43Zm2.06,6.77a3.94,3.94,0,0,0,3.1-1.42L52.86,92a3.45,3.45,0,0,0-2,3A2.34,2.34,0,0,0,53.34,97.2Zm2.28-10.66a1.91,1.91,0,0,0-2-1.8,1.65,1.65,0,0,0-1.78,1.64c0,.84.53,1.39,1.25,2.16l.53.52C53.94,88.85,55.62,88,55.62,86.54Z"/><path d="M69.23,97.18l.86-1.49a.56.56,0,0,1,.82-.17A7.94,7.94,0,0,0,74.53,97a2,2,0,0,0,2.19-1.85c0-1.22-1-2.06-3-2.88-2.26-.91-4.51-2.35-4.51-5.18,0-2.14,1.58-4.61,5.4-4.61a8.47,8.47,0,0,1,4.8,1.61.59.59,0,0,1,.14.79l-.91,1.37a.63.63,0,0,1-.84.28,7.91,7.91,0,0,0-3.34-1.32A1.91,1.91,0,0,0,72.3,86.9c0,1.13.89,1.9,2.83,2.69,2.33.94,5,2.33,5,5.43,0,2.47-2.14,4.75-5.52,4.75a7.74,7.74,0,0,1-5.28-1.87C69.13,97.68,69,97.56,69.23,97.18Z"/><path d="M90.64,82.49A8.64,8.64,0,1,1,82,91.15,8.62,8.62,0,0,1,90.64,82.49Zm0,14.16a5.52,5.52,0,1,0-5.5-5.5A5.53,5.53,0,0,0,90.64,96.65Z"/><path d="M104.17,82.85a.41.41,0,0,1,.43-.36H105a.44.44,0,0,1,.41.24l5.28,11.33h.07L116,82.73a.4.4,0,0,1,.41-.24h.38a.4.4,0,0,1,.43.36L120.08,99a.41.41,0,0,1-.43.55h-2.18a.52.52,0,0,1-.46-.36l-1.41-9.1h-.08l-4.2,9.43a.39.39,0,0,1-.4.27h-.44a.42.42,0,0,1-.4-.27l-4.25-9.43h-.07l-1.4,9.1a.45.45,0,0,1-.43.36h-2.16a.44.44,0,0,1-.45-.55Z"/><path d="M123.37,83.18a.45.45,0,0,1,.46-.45h9.77a.45.45,0,0,1,.45.45v2a.46.46,0,0,1-.45.46h-7.11v3.93h5.93a.48.48,0,0,1,.46.46v2a.46.46,0,0,1-.46.46h-5.93v4.2h7.11a.45.45,0,0,1,.45.45v2a.46.46,0,0,1-.45.46h-9.77a.46.46,0,0,1-.46-.46Z"/><path d="M142.79,82.92a.44.44,0,0,1,.45-.43h.6l10,10.61h0V83.18a.45.45,0,0,1,.46-.45h2.21a.46.46,0,0,1,.45.45V99.34a.44.44,0,0,1-.45.43h-.58l-10-11h0V99.07a.46.46,0,0,1-.45.46h-2.19a.47.47,0,0,1-.45-.46Z"/><path d="M168.75,82.49a8.64,8.64,0,1,1-8.61,8.66A8.62,8.62,0,0,1,168.75,82.49Zm0,14.16a5.52,5.52,0,1,0-5.49-5.5A5.54,5.54,0,0,0,168.75,96.65Z"/><path d="M182.63,85.61H179a.46.46,0,0,1-.45-.46v-2a.45.45,0,0,1,.45-.45h10.49a.45.45,0,0,1,.46.45v2a.46.46,0,0,1-.46.46h-3.67V99.07a.47.47,0,0,1-.46.46h-2.23a.47.47,0,0,1-.45-.46Z"/><path d="M190.93,92.33V90.72a.45.45,0,0,1,.46-.46h5.35a.45.45,0,0,1,.46.46v1.61a.44.44,0,0,1-.46.43h-5.35A.43.43,0,0,1,190.93,92.33Z"/><path d="M200.41,83.18a.47.47,0,0,1,.46-.45h2.23a.47.47,0,0,1,.46.45V99.07a.48.48,0,0,1-.46.46h-2.23a.48.48,0,0,1-.46-.46Z"/><path d="M207.92,82.92a.45.45,0,0,1,.46-.43h.6L219,93.1h0V83.18a.45.45,0,0,1,.45-.45h2.21a.47.47,0,0,1,.46.45V99.34a.45.45,0,0,1-.46.43h-.57l-10-11h0V99.07a.46.46,0,0,1-.46.46h-2.18a.48.48,0,0,1-.46-.46Z"/><path d="M228.73,85.61h-3.67a.46.46,0,0,1-.46-.46v-2a.45.45,0,0,1,.46-.45h10.49a.45.45,0,0,1,.45.45v2a.46.46,0,0,1-.45.46h-3.68V99.07a.47.47,0,0,1-.45.46h-2.23a.48.48,0,0,1-.46-.46Z"/><path d="M238.5,83.18a.45.45,0,0,1,.45-.45h9.77a.45.45,0,0,1,.46.45v2a.46.46,0,0,1-.46.46h-7.1v3.93h5.93A.47.47,0,0,1,248,90v2a.45.45,0,0,1-.45.46h-5.93v4.2h7.1a.45.45,0,0,1,.46.45v2a.46.46,0,0,1-.46.46H239a.46.46,0,0,1-.45-.46Z"/><path d="M252.61,83.18a.45.45,0,0,1,.46-.45h6.86a5.19,5.19,0,0,1,5.23,5.16,5.29,5.29,0,0,1-3.55,4.85l3.29,6.09a.46.46,0,0,1-.41.7H262a.39.39,0,0,1-.38-.22L258.39,93h-2.66v6.12a.48.48,0,0,1-.46.46h-2.2a.46.46,0,0,1-.46-.46Zm7.06,7.2A2.44,2.44,0,0,0,262,87.94a2.38,2.38,0,0,0-2.37-2.33h-3.92v4.77Z"/><path d="M268.11,82.92a.45.45,0,0,1,.46-.43h.6l10,10.61h0V83.18a.45.45,0,0,1,.45-.45h2.21a.47.47,0,0,1,.46.45V99.34a.45.45,0,0,1-.46.43h-.57l-10-11h0V99.07a.46.46,0,0,1-.46.46h-2.18a.48.48,0,0,1-.46-.46Z"/><path d="M286.67,83.18a.45.45,0,0,1,.45-.45h9.77a.46.46,0,0,1,.46.45v2a.47.47,0,0,1-.46.46h-7.1v3.93h5.92a.48.48,0,0,1,.46.46v2a.46.46,0,0,1-.46.46h-5.92v4.2h7.1a.46.46,0,0,1,.46.45v2a.47.47,0,0,1-.46.46h-9.77a.46.46,0,0,1-.45-.46Z"/><path d="M303,85.61h-3.67a.47.47,0,0,1-.46-.46v-2a.46.46,0,0,1,.46-.45h10.49a.46.46,0,0,1,.46.45v2a.47.47,0,0,1-.46.46h-3.67V99.07a.48.48,0,0,1-.46.46h-2.23a.48.48,0,0,1-.46-.46Z"/><path d="M317.12,97.18l.86-1.49a.56.56,0,0,1,.82-.17A7.94,7.94,0,0,0,322.43,97a2,2,0,0,0,2.18-1.85c0-1.22-1-2.06-3.05-2.88-2.25-.91-4.51-2.35-4.51-5.18,0-2.14,1.58-4.61,5.4-4.61a8.44,8.44,0,0,1,4.8,1.61.59.59,0,0,1,.14.79l-.91,1.37a.63.63,0,0,1-.84.28,7.85,7.85,0,0,0-3.33-1.32,1.92,1.92,0,0,0-2.12,1.68c0,1.13.89,1.9,2.83,2.69,2.33.94,5,2.33,5,5.43,0,2.47-2.13,4.75-5.52,4.75a7.76,7.76,0,0,1-5.28-1.87C317,97.68,316.9,97.56,317.12,97.18Z"/><path d="M333.37,85.61H329.7a.46.46,0,0,1-.46-.46v-2a.45.45,0,0,1,.46-.45h10.49a.45.45,0,0,1,.45.45v2a.46.46,0,0,1-.45.46h-3.68V99.07a.47.47,0,0,1-.45.46h-2.24a.47.47,0,0,1-.45-.46Z"/><path d="M342.9,83.18a.46.46,0,0,1,.45-.45h2.28a.45.45,0,0,1,.46.45V93a3.49,3.49,0,1,0,7,0V83.18a.46.46,0,0,1,.46-.45h2.28a.47.47,0,0,1,.46.45v10a6.69,6.69,0,0,1-13.37,0Z"/><path d="M360.39,83.18a.45.45,0,0,1,.46-.45h9.77a.45.45,0,0,1,.45.45v2a.46.46,0,0,1-.45.46h-7.11v4.51h5.93a.48.48,0,0,1,.46.46v2a.48.48,0,0,1-.46.46h-5.93v6.07a.47.47,0,0,1-.45.46h-2.21a.46.46,0,0,1-.46-.46Z"/><path d="M373.93,83.18a.45.45,0,0,1,.45-.45h9.77a.45.45,0,0,1,.46.45v2a.46.46,0,0,1-.46.46h-7.1v4.51H383a.47.47,0,0,1,.45.46v2A.47.47,0,0,1,383,93h-5.93v6.07a.48.48,0,0,1-.46.46h-2.21a.46.46,0,0,1-.45-.46Z"/><path d="M391.57,98.3c2.35-.62,3.24-3,3.24-7s-.89-6.46-3.24-7.08a.41.41,0,0,1-.29-.43l.07-1.59a.39.39,0,0,1,.46-.36c2.73.14,5.95,1.92,5.95,9.46s-3.22,9.26-5.95,9.46a.42.42,0,0,1-.46-.39l-.07-1.56A.41.41,0,0,1,391.57,98.3Z"/></svg>