<?xml version="1.0" encoding="utf-8"?>
<!-- Generator: Adobe Illustrator 23.0.3, SVG Export Plug-In . SVG Version: 6.00 Build 0)  -->
<svg version="1.1" id="Layer_1" xmlns="http://www.w3.org/2000/svg" xmlns:xlink="http://www.w3.org/1999/xlink" x="0px" y="0px"
	 viewBox="0 0 805.7 42.8" enable-background="new 0 0 805.7 42.8" xml:space="preserve">
<g>
	<path d="M0.3,34.3c0.5-0.7,1-1.6,1.5-2.3s1.3-1,1.9-0.4c0.3,0.3,4.7,3.9,9,3.9c3.9,0,6.4-2.4,6.4-5.2c0-3.4-2.9-5.6-8.5-7.9
		C4.8,20,0.3,16.9,0.3,10.4C0.3,6,3.7-0.1,12.7,0c5.7,0,9.9,3,10.5,3.4c0.5,0.3,0.9,1.1,0.3,1.9c-0.5,0.7-1,1.5-1.4,2.1
		c-0.5,0.7-1.2,1.1-2,0.6c-0.4-0.2-4.3-2.8-7.6-2.8c-4.8,0-6.4,3-6.4,5.1c0,3.2,2.5,5.2,7.2,7.1c6.6,2.7,12.1,5.8,12.1,12.7
		c0,5.9-5.3,10.7-12.6,10.7c-6.9,0-11.2-3.7-12.2-4.5C0.1,35.7-0.3,35.3,0.3,34.3z"/>
	<path d="M36.1,1.6c0-0.6,0.5-1.1,1.1-1.1h15.4c6.8,0,12.3,5.4,12.3,12.1c0,5.2-3.5,9.5-8.4,11.5l7.7,14.4c0.4,0.7,0,1.6-1,1.6h-4.4
		c-0.5,0-0.8-0.3-0.9-0.5l-7.5-15h-8.5V39c0,0.6-0.5,1.1-1.1,1.1h-3.7c-0.6,0-1.1-0.5-1.1-1.1L36.1,1.6z M52.1,19.8
		c3.7,0,6.9-3.1,6.9-7c0-3.7-3.2-6.7-6.9-6.8H42v13.7L52.1,19.8z"/>
	<path d="M77.1,32.9c2.2,0,4,1.8,3.9,4c0,2.1-1.8,3.9-4,3.9c-2.1,0-3.9-1.8-3.9-3.9C73.2,34.7,75,32.9,77.1,32.9z"/>
	<path d="M124.9,0.2c5.7,0,9.8,2,13.7,5.3c0.5,0.5,0.5,1.1,0.1,1.6l-2.5,2.5c-0.4,0.5-0.9,0.5-1.4,0c-2.7-2.3-6.3-3.8-9.8-3.8
		c-8.1,0-14.2,6.7-14.2,14.7c0,7.9,6.1,14.7,14.2,14.7c4.1,0,7-1.6,9.7-3.7c0.5-0.4,1-0.3,1.4-0.1l2.6,2.6c0.5,0.4,0.3,1.1-0.1,1.5
		c-3.9,3.7-8.7,5.5-13.8,5.4c-11.3,0-20.4-9.1-20.4-20.4C104.4,9.3,113.5,0.2,124.9,0.2z"/>
	<path d="M149.5,1.9c0-0.6,0.5-1.1,1.1-1.1H166c6.8,0,12.3,5.4,12.3,12.1c0,5.2-3.5,9.5-8.4,11.5l7.7,14.4c0.4,0.7,0,1.6-1,1.6h-4.4
		c-0.5,0-0.8-0.3-0.9-0.5l-7.5-15h-8.5v14.4c0,0.6-0.5,1.1-1.1,1.1h-3.7c-0.6,0-1.1-0.5-1.1-1.1L149.5,1.9z M165.5,20.1
		c3.7,0,6.9-3.1,6.9-7c0-3.7-3.2-6.7-6.9-6.8h-10.1V20L165.5,20.1z"/>
	<path d="M190,2c0-0.6,0.5-1.1,1.1-1.1L213.7,1c0.6,0,1.1,0.5,1.1,1.1v3.2c0,0.6-0.5,1.1-1.1,1.1l-17.9-0.1v11.5h15.1
		c0.6,0,1.1,0.5,1.1,1.1v3.2c0,0.6-0.5,1.1-1.1,1.1h-15.1v12.2l17.9,0.1c0.6,0,1.1,0.5,1.1,1.1v3.1c0,0.6-0.5,1.1-1.1,1.1l-22.6-0.1
		c-0.6,0-1.1-0.5-1.1-1.1V2z"/>
	<path d="M220.7,39.2l17.5-38c0.2-0.3,0.7-0.6,1-0.6h0.6c0.3,0,0.8,0.3,1,0.6l17.1,38.1c0.3,0.7-0.1,1.5-1,1.5h-3.6
		c-0.7,0-1.1-0.3-1.3-0.8l-3.5-7.8L230,32.1c-1.1,2.6-2.3,5.1-3.5,7.7c-0.2,0.4-0.6,0.8-1.3,0.8h-3.6
		C220.8,40.7,220.4,39.9,220.7,39.2z M246.4,27.3l-6.9-15.5h-0.3l-6.9,15.5H246.4z"/>
	<path d="M269.8,6.5h-9.2c-0.6,0-1.1-0.5-1.1-1.1V2.2c0-0.6,0.5-1.1,1.1-1.1l24.3,0.1c0.6,0,1.1,0.5,1.1,1.1v3.2
		c0,0.6-0.5,1.1-1.1,1.1h-9.2l-0.1,33.2c0,0.6-0.5,1.1-1.1,1.1h-3.7c-0.6,0-1.1-0.5-1.1-1.1L269.8,6.5z"/>
	<path d="M294.9,2.3c0-0.6,0.5-1.1,1.1-1.1h3.7c0.6,0,1.1,0.5,1.1,1.1l-0.1,37.5c0,0.6-0.5,1.1-1.1,1.1h-3.7c-0.6,0-1.1-0.5-1.1-1.1
		L294.9,2.3z"/>
	<path d="M309.3,2.8c-0.3-0.7,0.1-1.5,1-1.5h4c0.5,0,0.8,0.3,1,0.6l12.4,28h0.3l12.5-28c0.1-0.3,0.5-0.6,1-0.6h4
		c0.8,0,1.3,0.7,1,1.5l-17.5,38c-0.2,0.3-0.5,0.6-1,0.6h-0.6c-0.4,0-0.8-0.3-1-0.6L309.3,2.8z"/>
	<path d="M355,2.5c0-0.6,0.5-1.1,1.1-1.1l22.6,0.1c0.6,0,1.1,0.5,1.1,1.1v3.2c0,0.6-0.5,1.1-1.1,1.1h-17.9v11.5h15.1
		c0.6,0,1.1,0.5,1.1,1.1v3.2c0,0.6-0.5,1.1-1.1,1.1h-15.1V36h17.9c0.6,0,1.1,0.5,1.1,1.1v3.1c0,0.6-0.5,1.1-1.1,1.1l-22.6-0.1
		c-0.6,0-1.1-0.5-1.1-1.1V2.5z"/>
	<path d="M411.8,6.9h-9.2c-0.6,0-1.1-0.5-1.1-1.1V2.6c0-0.6,0.5-1.1,1.1-1.1l24.3,0.1c0.6,0,1.1,0.5,1.1,1.1v3.2
		c0,0.6-0.5,1.1-1.1,1.1h-9.2l-0.1,33.2c0,0.6-0.5,1.1-1.1,1.1h-3.7c-0.6,0-1.1-0.5-1.1-1.1L411.8,6.9z"/>
	<path d="M437,2.7c0-0.6,0.5-1.1,1.1-1.1l22.6,0.1c0.6,0,1.1,0.5,1.1,1.1V6c0,0.6-0.5,1.1-1.1,1.1L442.8,7v11.5h15.1
		c0.6,0,1.1,0.5,1.1,1.1v3.2c0,0.6-0.5,1.1-1.1,1.1h-15.1v12.2h17.9c0.6,0,1.1,0.5,1.1,1.1v3.1c0,0.6-0.5,1.1-1.1,1.1l-22.6-0.1
		c-0.6,0-1.1-0.5-1.1-1.1V2.7z"/>
	<path d="M490.5,1.3c5.7,0,9.8,2,13.7,5.3c0.5,0.5,0.5,1.1,0.1,1.6l-2.5,2.5c-0.4,0.5-0.9,0.5-1.4,0c-2.7-2.3-6.3-3.8-9.8-3.8
		c-8.1,0-14.2,6.7-14.2,14.7c0,7.9,6.1,14.7,14.2,14.7c4.1,0,7-1.6,9.7-3.7c0.5-0.4,1-0.3,1.4-0.1l2.6,2.6c0.5,0.4,0.3,1.1-0.1,1.5
		c-3.9,3.7-8.7,5.5-13.8,5.4c-11.3,0-20.4-9.1-20.4-20.4C470,10.3,479.2,1.2,490.5,1.3z"/>
	<path d="M515.2,3c0-0.6,0.5-1.1,1.1-1.1h3.7c0.6,0,1.1,0.5,1.1,1.1v15.8l20.7,0.1V3.1c0-0.6,0.5-1.1,1.1-1.1h3.7
		c0.6,0,1.1,0.5,1.1,1.1l-0.1,37.5c0,0.6-0.5,1.1-1.1,1.1h-3.7c-0.6,0-1.1-0.5-1.1-1.1V24.2L521,24.1v16.3c0,0.6-0.5,1.1-1.1,1.1
		h-3.7c-0.6,0-1.1-0.5-1.1-1.1L515.2,3z"/>
	<path d="M561.5,2.5c0-0.6,0.5-1,1.1-1h1.4L588.5,30h0.1l0.1-26.8c0-0.6,0.5-1.1,1.1-1.1h3.6c0.6,0,1.1,0.5,1.1,1.1l-0.1,38.1
		c0,0.6-0.5,1-1.1,1h-1.5L567.3,13h-0.1l-0.1,27.6c0,0.6-0.5,1.1-1.1,1.1h-3.6c-0.6,0-1.1-0.5-1.1-1.1L561.5,2.5z"/>
	<path d="M625.6,1.6c11.3,0,20.3,9.2,20.3,20.5s-9.1,20.3-20.4,20.3c-11.3,0-20.3-9.1-20.3-20.4C605.2,10.7,614.2,1.6,625.6,1.6z
		 M625.5,36.7c8.1,0,14.7-6.5,14.8-14.6c0-8-6.6-14.8-14.7-14.8c-8,0-14.7,6.7-14.7,14.7C610.8,30.1,617.4,36.7,625.5,36.7z"/>
	<path d="M656.9,3.4c0-0.6,0.5-1.1,1.1-1.1h3.7c0.6,0,1.1,0.5,1.1,1.1l-0.1,33.3H678c0.6,0,1.1,0.5,1.1,1.1v3.1
		c0,0.6-0.5,1.1-1.1,1.1l-20.1-0.1c-0.6,0-1.1-0.5-1.1-1.1L656.9,3.4z"/>
	<path d="M705,1.9c5.4,0,9.9,2,13.7,5.3c0.4,0.5,0.5,1.1,0.1,1.6c-0.9,0.9-1.7,1.7-2.6,2.7c-0.5,0.5-0.9,0.4-1.5-0.1
		c-2.7-2.3-6.2-3.9-9.6-3.9c-8,0-14.2,6.7-14.2,14.7c0,7.9,6.1,14.7,14.2,14.7c4.7,0,7.9-1.7,8.5-1.9v-6.3h-5.5
		c-0.6,0-1.1-0.5-1.1-1v-3.3c0-0.6,0.5-1.1,1.1-1.1h10.3c0.6,0,1,0.5,1,1.1c0,4.5,0,9.2,0,13.7c0,0.3-0.2,0.7-0.5,0.9
		c0,0-5.8,3.7-14,3.7c-11.3,0-20.3-9.1-20.3-20.4C684.6,10.9,693.8,1.8,705,1.9z"/>
	<path d="M731.2,3.6c0-0.6,0.5-1.1,1.1-1.1h3.7c0.6,0,1.1,0.5,1.1,1.1L737,41.1c0,0.6-0.5,1.1-1.1,1.1h-3.7c-0.6,0-1.1-0.5-1.1-1.1
		L731.2,3.6z"/>
	<path d="M748.3,36.4c0.5-0.7,1-1.6,1.5-2.3s1.3-1,1.9-0.4c0.3,0.3,4.7,3.9,9,3.9c3.9,0,6.4-2.4,6.4-5.2c0-3.4-2.9-5.6-8.5-7.9
		c-5.8-2.4-10.3-5.5-10.3-12c0-4.4,3.4-10.5,12.4-10.4c5.7,0,9.9,3,10.5,3.4c0.4,0.3,0.9,1.1,0.3,1.9c-0.5,0.7-1,1.5-1.4,2.1
		c-0.5,0.7-1.2,1.1-2,0.6c-0.4-0.2-4.3-2.8-7.6-2.9c-4.8,0-6.4,3-6.4,5.1c0,3.2,2.5,5.2,7.2,7.1c6.6,2.7,12.1,5.8,12.1,12.7
		c0,5.9-5.3,10.7-12.6,10.7c-6.9,0-11.2-3.7-12.2-4.5C748.1,37.8,747.7,37.4,748.3,36.4z"/>
	<path d="M789.5,8h-9.2c-0.6,0-1.1-0.5-1.1-1.1V3.7c0-0.6,0.5-1.1,1.1-1.1l24.3,0.1c0.6,0,1.1,0.5,1.1,1.1V7c0,0.6-0.5,1.1-1.1,1.1
		h-9.2l-0.1,33.2c0,0.6-0.5,1.1-1.1,1.1h-3.7c-0.6,0-1.1-0.5-1.1-1.1L789.5,8z"/>
</g>
</svg>
