<?xml version="1.0" encoding="utf-8"?>
<!-- Generator: Adobe Illustrator 23.0.3, SVG Export Plug-In . SVG Version: 6.00 Build 0)  -->
<svg version="1.1" id="Layer_1" xmlns="http://www.w3.org/2000/svg" xmlns:xlink="http://www.w3.org/1999/xlink" x="0px" y="0px"
	 viewBox="0 0 805 41" enable-background="new 0 0 805 41" xml:space="preserve">
<g>
	<g>
		<path d="M224.9,1.1c0-0.6,0.5-1.1,1.1-1.1h12.7c6.8,0,11.8,4.6,11.7,10.5c0,4.4-3.2,7.5-5.9,9c3,1.3,7.1,4,7,9.2
			c0,6.3-5.2,10.9-12.4,10.9h-13.3c-0.6,0-1.1-0.5-1.1-1.1L224.9,1.1z M239.1,34.4c3.4,0,6.1-2.6,6.1-6.1s-3.3-5.9-6.9-6h-7.8v12.1
			H239.1z M238.3,17.2c3.6,0,5.8-2.6,5.8-6c0-3.5-2.2-5.8-5.8-5.8h-7.6v11.9L238.3,17.2z"/>
		<path d="M262.9,1.2c0-0.6,0.5-1.1,1.1-1.1h3.7c0.6,0,1.1,0.5,1.1,1.1l-0.1,37.5c0,0.6-0.5,1.1-1.1,1.1h-3.7
			c-0.6,0-1.1-0.5-1.1-1.1L262.9,1.2z"/>
		<path d="M282.6,1.2c0-0.6,0.5-1.1,1.1-1.1h3.7c0.6,0,1.1,0.5,1.1,1.1l-0.1,33.3h15.3c0.6,0,1.1,0.5,1.1,1.1v3.1
			c0,0.6-0.5,1.1-1.1,1.1l-20.1-0.1c-0.6,0-1.1-0.5-1.1-1.1L282.6,1.2z"/>
		<path d="M313.7,1.3c0-0.6,0.5-1.1,1.1-1.1h3.7c0.6,0,1.1,0.5,1.1,1.1l-0.1,33.3h15.3c0.6,0,1.1,0.5,1.1,1.1v3.1
			c0,0.6-0.5,1.1-1.1,1.1l-20.1-0.1c-0.6,0-1.1-0.5-1.1-1.1L313.7,1.3z"/>
		<path d="M360,1.5c0-0.6,0.5-1.1,1.1-1.1H374c7,0,12.7,5.7,12.6,12.5c0,7-5.7,12.7-12.7,12.7h-8.2v13.3c0,0.6-0.5,1.1-1.1,1.1h-3.7
			c-0.6,0-1.1-0.5-1.1-1.1L360,1.5z M373.6,20.1c3.9,0,7.2-3.1,7.2-7.2c0-3.8-3.3-6.8-7.2-6.8h-7.8v14H373.6z"/>
		<path d="M396.5,1.6c0-0.6,0.5-1.1,1.1-1.1l22.6,0.1c0.6,0,1.1,0.5,1.1,1.1v3.2c0,0.6-0.5,1.1-1.1,1.1l-17.9-0.1v11.5h15.1
			c0.6,0,1.1,0.5,1.1,1.1v3.2c0,0.6-0.5,1.1-1.1,1.1h-15.1V35l17.9,0.1c0.6,0,1.1,0.5,1.1,1.1v3.1c0,0.6-0.5,1.1-1.1,1.1l-22.6-0.1
			c-0.6,0-1.1-0.5-1.1-1.1V1.6z"/>
		<path d="M427.2,38.7l17.5-38c0.2-0.3,0.7-0.6,1-0.6h0.6c0.3,0,0.8,0.3,1,0.6l17.1,38.1c0.3,0.7-0.1,1.5-1,1.5h-3.6
			c-0.7,0-1.1-0.3-1.3-0.9l-3.5-7.8l-18.5-0.1c-1.1,2.6-2.3,5.1-3.5,7.7c-0.2,0.4-0.6,0.8-1.3,0.8h-3.6
			C427.3,40.2,426.9,39.4,427.2,38.7z M452.9,26.8L446,11.3h-0.3l-6.9,15.5H452.9z"/>
		<path d="M472.9,1.8c0-0.6,0.5-1.1,1.1-1.1h15.4c6.8,0,12.3,5.4,12.3,12.1c0,5.2-3.5,9.5-8.4,11.5l7.7,14.4c0.4,0.7,0,1.6-1,1.6
			h-4.4c-0.5,0-0.8-0.3-0.9-0.5l-7.5-15h-8.5v14.4c0,0.6-0.5,1.1-1.1,1.1h-3.7c-0.6,0-1.1-0.5-1.1-1.1L472.9,1.8z M488.9,20
			c3.7,0,6.9-3.1,6.9-7c0-3.7-3.2-6.7-6.9-6.8h-10.1v13.7L488.9,20z"/>
		<path d="M530.9,0.3c5.7,0,9.8,2,13.7,5.3c0.5,0.5,0.5,1.1,0,1.6l-2.4,2.5c-0.4,0.5-0.9,0.5-1.4,0c-2.7-2.3-6.3-3.8-9.8-3.8
			c-8.1,0-14.2,6.7-14.2,14.7c0,7.9,6.1,14.7,14.2,14.7c4.1,0,7-1.6,9.7-3.7c0.5-0.4,1-0.3,1.4-0.1l2.6,2.6c0.4,0.4,0.3,1.1-0.1,1.5
			c-3.9,3.7-8.7,5.5-13.8,5.4c-11.3,0-20.4-9.1-20.4-20.4C510.5,9.4,519.6,0.3,530.9,0.3z"/>
		<path d="M555.6,2c0-0.6,0.5-1.1,1.1-1.1L579.2,1c0.6,0,1.1,0.5,1.1,1.1v3.2c0,0.6-0.5,1.1-1.1,1.1l-17.9-0.1v11.5h15.1
			c0.6,0,1.1,0.5,1.1,1.1v3.2c0,0.6-0.5,1.1-1.1,1.1h-15.1v12.2l17.9,0.1c0.6,0,1.1,0.5,1.1,1.1v3.1c0,0.6-0.5,1.1-1.1,1.1
			l-22.6-0.1c-0.6,0-1.1-0.5-1.1-1.1V2z"/>
	</g>
</g>
</svg>
