<svg id="and_i_make" data-name="and_i_make" xmlns="http://www.w3.org/2000/svg" viewBox="0 0 285 63.79"><title>svgs</title><polyline points="242.44 8.65 226.62 0 226.62 8.25"/><polyline points="42.56 8.65 58.38 0 58.38 8.25"/><polyline points="249.89 52.54 285 52.54 269.56 26.27 285 0 232.58 0 249.89 9.74"/><polyline points="35.11 52.54 0 52.54 15.44 26.27 0 0 52.42 0 35.11 9.74"/><path d="M92.48,41.94a2.91,2.91,0,0,0,3,2.9,5.26,5.26,0,0,0,4.1-2l-4.44-4.66C94.07,38.82,92.48,40,92.48,41.94Z"/><path d="M156.78,32.5l-3.5,7.88h7.2c-1.18-2.62-2.33-5.26-3.51-7.88Z"/><path d="M95.56,36.25c1.08-.65,3-1.73,3-3.46a2.51,2.51,0,0,0-5,.19c0,1,.63,1.85,1.54,2.74Z"/><path d="M38.1,11.26V63.79H247.2V11.26ZM104,45.85l-.28.26a.65.65,0,0,1-1-.07l-2-2.11a6.86,6.86,0,0,1-5.23,2.4,4.31,4.31,0,0,1-4.64-4.42c0-2.59,2-4,3.34-4.8v0l-.58-.62a4.88,4.88,0,0,1-1.68-3.5,3.93,3.93,0,0,1,4.25-3.89c2.59,0,4.06,1.7,4.06,3.69S98,36.49,96.64,37.35l4,4a9.73,9.73,0,0,0,1-4.27c0-.53.19-.55.55-.55h.58c.5,0,.45.36.45.55a11.36,11.36,0,0,1-1.42,5.4l2.31,2.3C104.32,45.06,104.51,45.3,104,45.85Zm12.87-.22a.48.48,0,0,1-.46.46h-1a.47.47,0,0,1-.45-.46V29.74a.46.46,0,0,1,.45-.45h1a.47.47,0,0,1,.46.45Zm29.18.46h-1a.5.5,0,0,1-.43-.34l-2.14-12.36h-.09L138,46.06a.48.48,0,0,1-.41.27h-.43a.49.49,0,0,1-.41-.27L132.3,33.39h-.1l-2.08,12.36a.48.48,0,0,1-.44.34h-1c-.36,0-.5-.24-.43-.58l3.1-16.13a.46.46,0,0,1,.43-.33h.38a.46.46,0,0,1,.41.26l4.75,13.23h.12l4.68-13.23a.46.46,0,0,1,.41-.26H143a.46.46,0,0,1,.43.33l3.09,16.13C146.56,45.85,146.41,46.09,146.05,46.09Zm18.22,0h-1a.43.43,0,0,1-.41-.27l-1.78-4H152.6l-1.75,4a.43.43,0,0,1-.41.27h-1a.43.43,0,0,1-.41-.63l7.3-16.15a.43.43,0,0,1,.41-.26H157a.43.43,0,0,1,.41.26l7.25,16.15A.43.43,0,0,1,164.27,46.09Zm15.43,0h-1.22a.69.69,0,0,1-.44-.17l-7.7-8v7.63a.59.59,0,0,1-.58.58h-.69a.57.57,0,0,1-.58-.58V29.86a.57.57,0,0,1,.58-.57h.69a.58.58,0,0,1,.58.57v6.8l7.49-7.13a.69.69,0,0,1,.45-.24h1.18a.46.46,0,0,1,.29.84l-7.59,7.08,8,8.13A.48.48,0,0,1,179.7,46.09Zm15.07-15.65a.46.46,0,0,1-.45.46h-8.07v5.85h6.89a.48.48,0,0,1,.46.46v.69a.46.46,0,0,1-.46.46h-6.89v6.12h8.07a.46.46,0,0,1,.45.46v.69a.46.46,0,0,1-.45.46h-9.46a.47.47,0,0,1-.46-.46V29.74a.46.46,0,0,1,.46-.45h9.46a.45.45,0,0,1,.45.45Z"/></svg>
