<svg id="bill_pearce" data-name="bill_pearce" xmlns="http://www.w3.org/2000/svg" viewBox="0 0 586.96 124.47"><title>svgs</title><path d="M.72,45.72l13.86-8.1a1.37,1.37,0,0,1,1.08.09,1,1,0,0,1,.54,1v76a1.06,1.06,0,0,1-.54.9l-14,8.1a.9.9,0,0,1-1.08,0,1.06,1.06,0,0,1-.54-.9L.18,46.62A1.06,1.06,0,0,1,.72,45.72ZM72.18,50a1.06,1.06,0,0,0,.54.9l14.94,8.64a1.06,1.06,0,0,1,.54.9V91.62a1.06,1.06,0,0,1-.54.9L72.18,101,56.7,110a.9.9,0,0,1-1.08,0l-13.86-7.92a1.18,1.18,0,0,1,0-2l13.86-7.92a.9.9,0,0,1,1.08,0l13.86,7.92a.9.9,0,0,0,1.08,0,1.06,1.06,0,0,0,.54-.9V69.66a1.06,1.06,0,0,0-.54-.9L57.78,60.84a.9.9,0,0,0-1.08,0L40.68,70a1.06,1.06,0,0,0-.54.9v29.52a1.06,1.06,0,0,1-.54.9l-13.86,8.28a1,1,0,0,1-1.62-.9V32.58a1.06,1.06,0,0,1,.54-.9l15.48-8.82,15.48-9a1.66,1.66,0,0,1,1.08,0L71.64,22.5a1.21,1.21,0,0,1,.54,1.08Zm-32,17.28a.86.86,0,0,0,.54.81,1.37,1.37,0,0,0,1.08.09l14.4-8.28V32.76a.83.83,0,0,0-.54-.9l-13.86-8.1a1.37,1.37,0,0,0-1.08.09.86.86,0,0,0-.54.81Z"/><path d="M118.08,111.6l6.3,3.6a.73.73,0,0,1,0,1.26l-13.32,7.74a.45.45,0,0,1-.72,0l-13.5-7.74a.73.73,0,0,1,0-1.26l5.94-3.42a.73.73,0,0,0,.36-.72V60.3a.58.58,0,0,0-.36-.54l-5.94-3.42a.64.64,0,0,1-.36-.63,1.12,1.12,0,0,1,.36-.81l6.3-3.6,7.2-4a.45.45,0,0,1,.72,0l7,4,6.3,3.6a.9.9,0,0,1,0,1.44l-5.94,3.42a.58.58,0,0,0-.36.54ZM124,31.68l-13,7.56a1.16,1.16,0,0,1-.9,0l-13-7.56a.71.71,0,0,1-.54-.72,1.06,1.06,0,0,1,.54-.9l13-7.56a1.16,1.16,0,0,1,.9,0l13,7.56a1.06,1.06,0,0,1,.54.9A.71.71,0,0,1,124,31.68Z"/><path d="M152.28.18a.9.9,0,0,1,1.08,0,1.06,1.06,0,0,1,.54.9V110a.83.83,0,0,0,.54.9l5.94,3.42a1.13,1.13,0,0,1,.54,1,.76.76,0,0,1-.54.81l-13.86,8.1a.9.9,0,0,1-1.08,0l-14-8.1a.76.76,0,0,1-.54-.81,1.13,1.13,0,0,1,.54-1l5.94-3.42a.83.83,0,0,0,.54-.9V9.18a1.21,1.21,0,0,1,.54-1.08Z"/><path d="M184.31.18a.9.9,0,0,1,1.08,0,1.06,1.06,0,0,1,.54.9V110a.83.83,0,0,0,.54.9l5.94,3.42a1.13,1.13,0,0,1,.54,1,.76.76,0,0,1-.54.81l-13.86,8.1a.9.9,0,0,1-1.08,0l-14-8.1a.76.76,0,0,1-.54-.81,1.13,1.13,0,0,1,.54-1l5.94-3.42a.83.83,0,0,0,.54-.9V9.18a1.21,1.21,0,0,1,.54-1.08Z"/><path d="M229.13,64.8v-18a.83.83,0,0,1,.54-.9l13.86-8.1a1.23,1.23,0,0,1,1.8.9v72q0,.54-.72.9l-13.86,7.92a1,1,0,0,1-1.62-.9V64.8Zm88-42.12a.83.83,0,0,1,.54.9V78.12a1.06,1.06,0,0,1-.54.9l-15.66,9L286,97a1.67,1.67,0,0,1-1.08,0l-14-8.1a1.34,1.34,0,0,1-.36-1q0-.63.36-.81l14-8.1A.9.9,0,0,1,286,79l14,8.1A1,1,0,0,0,301,87a1,1,0,0,0,.54-1V32.76a1.22,1.22,0,0,0-.36-.9l-14-7.92a.9.9,0,0,0-1.08,0l-16,9.18a1.06,1.06,0,0,0-.54.9V115.2a.83.83,0,0,1-.54.9l-14,8.1a.9.9,0,0,1-1.08,0,1.06,1.06,0,0,1-.54-.9V32.94a1.21,1.21,0,0,0-.54-1.08l-13.86-7.92a1.18,1.18,0,0,1,0-2l13.86-8.1a1.66,1.66,0,0,1,1.08,0l14.94,8.82a.85.85,0,0,1,.72.9v6.84a1.06,1.06,0,0,0,.54.9q.54.36.9,0l18.72-10.8L301,13.86a1.67,1.67,0,0,1,1.08,0Z"/><path d="M361.25,68.4,339.47,81a1.06,1.06,0,0,0-.54.9V103L360,115a1.31,1.31,0,0,1,0,1.8l-13,7.38a.9.9,0,0,1-1.08,0l-21.42-12.42a.71.71,0,0,1-.54-.72V64.62a.71.71,0,0,1,.54-.72l14-8.28.54-.18,14.22-8.28a.9.9,0,0,1,1.08,0l20.34,11.7a1,1,0,0,1,0,1.8ZM339.47,56.34a1.06,1.06,0,0,0-.54.9V78.48a.86.86,0,0,0,.54.81,1,1,0,0,0,.9.09l18.54-10.62a1.3,1.3,0,0,0,0-1.8L340.37,56.34Q340,56,339.47,56.34Z"/><path d="M441.53,115a1,1,0,0,1,0,1.8l-13,7.38a.9.9,0,0,1-1.08,0l-14.4-8.28-14.4,8.28a.9.9,0,0,1-1.08,0l-13.86-8.1a.71.71,0,0,1-.54-.72V64.62a.71.71,0,0,1,.54-.72l14.4-8.46,14.4-8.28a.9.9,0,0,1,1.08,0l13.86,8.1A.71.71,0,0,1,428,56v50.76a1.06,1.06,0,0,0,.54.9Zm-28.44-.9V64.62a.71.71,0,0,0-.54-.72l-13-7.56q-.36-.36-.9,0a1.06,1.06,0,0,0-.54.9v49.5a.71.71,0,0,0,.54.72l13,7.56q.36.36.9,0A1.06,1.06,0,0,0,413.09,114.12Z"/><path d="M465.11,59.58a.56.56,0,0,0-.36.54V111.6l6.48,3.78a.59.59,0,0,1,0,1.08l-13.68,7.92q-.37.18-.54,0l-13.68-7.92a.59.59,0,0,1,0-1.08l6.12-3.6a.58.58,0,0,0,.36-.54V60.12q0-.18-.36-.54L443.33,56c-.25-.12-.36-.27-.36-.45s.11-.33.36-.45l6.48-3.78,7.2-4.14q.17-.18.54,0l7.2,4.14,3.42,1.8q.16.18.54,0l10.62-5.94q.17-.18.54,0l13.68,7.92q.36.18.36.45t-.36.45L479.87,63.9q-.37.18-.54,0l-10.62-6.12h-.54Z"/><path d="M507.4,56.34a1.34,1.34,0,0,0-1.07.09.85.85,0,0,0-.54.81v50h0l14.57-8.46a1.16,1.16,0,0,1,.9,0l13,7.56a1,1,0,0,1,0,1.8l-4.14,2.34L506.33,124.2c-.37.24-.67.24-.91,0l-14-8.1a.71.71,0,0,1-.54-.72V64.62a.71.71,0,0,1,.54-.72l14.41-8.46,14.57-8.28q.36-.36.9,0l13,7.38a1.13,1.13,0,0,1,.54,1,.76.76,0,0,1-.54.81l-13,7.56a1.16,1.16,0,0,1-.9,0Z"/><path d="M572.92,68.4,551.14,81a1.06,1.06,0,0,0-.54.9V103L571.66,115a1.31,1.31,0,0,1,0,1.8l-13,7.38a.9.9,0,0,1-1.08,0L536.2,111.78a.71.71,0,0,1-.54-.72V64.62a.71.71,0,0,1,.54-.72l14-8.28.54-.18L565,47.16a.9.9,0,0,1,1.08,0l20.34,11.7a1,1,0,0,1,0,1.8ZM551.14,56.34a1.06,1.06,0,0,0-.54.9V78.48a.86.86,0,0,0,.54.81,1,1,0,0,0,.9.09l18.54-10.62a1.31,1.31,0,0,0,0-1.8L552,56.34Q551.68,56,551.14,56.34Z"/></svg>
