<svg id="desktop-layout" data-name="Desktop Layout" xmlns="http://www.w3.org/2000/svg" viewBox="0 0 587 597"><title>svgs</title><path d="M296,4.33A124,124,0,0,1,383.68,216,124,124,0,1,1,208.32,40.65,123.19,123.19,0,0,1,296,4.33m0-4a128,128,0,1,0,128,128A128,128,0,0,0,296,.33Z"/><path d="M294.27,190.58l-3.5,7.88H298c-1.18-2.62-2.33-5.26-3.51-7.88Z"/><path d="M296,7.33a121,121,0,1,0,121,121A121,121,0,0,0,296,7.33Zm8.1,77.94L314.9,79a1,1,0,0,1,.75,0l10.8,6.3a.88.88,0,0,1,.45.75.59.59,0,0,1-.45.6l-10.8,6.3a1,1,0,0,1-.75,0l-10.8-6.3a.59.59,0,0,1-.45-.6A.88.88,0,0,1,304.1,85.27Zm-82.8,43.8V99.22a.71.71,0,0,1,.6-.75l11.4-6.6a.86.86,0,0,1,1,0,1,1,0,0,1,.53.9v42.9a1,1,0,0,1-.53.9.86.86,0,0,1-1,0L221.9,130A1,1,0,0,1,221.3,129.07Zm21.59,75.1h-1a.5.5,0,0,1-.43-.34l-2.14-12.36h-.09l-4.42,12.67a.48.48,0,0,1-.41.27H234a.49.49,0,0,1-.41-.27l-4.46-12.67H229L227,203.83a.46.46,0,0,1-.43.34h-1c-.36,0-.5-.24-.43-.58l3.1-16.13a.45.45,0,0,1,.43-.33H229a.46.46,0,0,1,.41.26l4.75,13.23h.12L239,187.39a.46.46,0,0,1,.41-.26h.38a.46.46,0,0,1,.44.33l3.09,16.13C243.4,203.93,243.25,204.17,242.89,204.17Zm16-16.11-5.86,8v7.65a.47.47,0,0,1-.45.46h-.94a.47.47,0,0,1-.46-.46v-7.63l-5.78-8a.44.44,0,0,1,.38-.69h1.13a.56.56,0,0,1,.39.21l4.84,6.7,4.85-6.7a.54.54,0,0,1,.39-.21h1.12A.44.44,0,0,1,258.9,188.06ZM268,156.52l-13-7.5-13.05,7.5q-.45.3-.75,0l-12-6.9a.75.75,0,0,1,0-1.2l12-6.9q.45-.3.75,0L254.9,149l13-7.5q.3-.3.75,0l12,6.9a.75.75,0,0,1,0,1.2l-12,6.9Q268.25,156.82,268,156.52ZM282.78,204a.45.45,0,0,1-.46.43h-.43l-11-13.75h0v13.05a.46.46,0,0,1-.46.46h-.84a.47.47,0,0,1-.45-.46V187.56a.44.44,0,0,1,.45-.43h.6L281,200.62h0v-12.8a.46.46,0,0,1,.46-.45h.84a.47.47,0,0,1,.46.45Zm-.58-40.26a.88.88,0,0,1-.45-.75v-44.4a.69.69,0,0,0-.45-.75l-11.7-6.75a.75.75,0,0,0-.9,0l-13.35,7.8a.88.88,0,0,0-.45.75V133a.69.69,0,0,1-.45.75l-11.55,6.75a.75.75,0,0,1-.9,0,.88.88,0,0,1-.45-.75V87.52a.88.88,0,0,1,.45-.75l.6-.3v-.15l17.1-9.75,8.1-4.8a.75.75,0,0,1,.9,0l11.7,6.75a.93.93,0,0,1,.45.82.64.64,0,0,1-.45.68l-11.7,6.75a.75.75,0,0,1-.9,0L256.25,80a.75.75,0,0,0-.9,0,.88.88,0,0,0-.45.75v35.7a.83.83,0,0,0,.45.82.84.84,0,0,0,.9-.07l12.15-6.9h-.15l13.05-7.5a.75.75,0,0,1,.9,0l12.45,7.2a.88.88,0,0,1,.45.75v45.45a.69.69,0,0,1-.45.75l-11.55,6.75A.75.75,0,0,1,282.2,163.72Zm19.56,40.45h-1a.45.45,0,0,1-.41-.27l-1.77-4H290.1l-1.76,4a.43.43,0,0,1-.4.27h-1a.43.43,0,0,1-.41-.63l7.29-16.15a.45.45,0,0,1,.41-.26h.24a.43.43,0,0,1,.41.26l7.25,16.15A.43.43,0,0,1,301.76,204.17Zm20.78,0h-1a.5.5,0,0,1-.43-.34L319,191.47h-.1l-4.42,12.67a.46.46,0,0,1-.4.27h-.44a.46.46,0,0,1-.4-.27l-4.47-12.67h-.09l-2.09,12.36a.47.47,0,0,1-.43.34h-1c-.35,0-.5-.24-.43-.58l3.1-16.13a.46.46,0,0,1,.43-.33h.39a.45.45,0,0,1,.4.26l4.76,13.23H314l4.68-13.23a.45.45,0,0,1,.4-.26h.39a.46.46,0,0,1,.43.33l3.1,16.13C323.05,203.93,322.91,204.17,322.54,204.17Zm4.21-47.95a.61.61,0,0,1,0,1.05l-11.1,6.45a.37.37,0,0,1-.6,0l-11.25-6.45a.53.53,0,0,1-.3-.53.52.52,0,0,1,.3-.52l4.95-2.85a.6.6,0,0,0,.3-.6v-42.3a.48.48,0,0,0-.3-.45l-4.95-2.85a.53.53,0,0,1-.3-.53.9.9,0,0,1,.3-.67l5.25-3,6-3.3a.37.37,0,0,1,.6,0l5.85,3.3,5.25,3a.75.75,0,0,1,0,1.2L321.8,110a.47.47,0,0,0-.3.45v42.75Zm11.49,32.3a.46.46,0,0,1-.46.46h-8.06v5.85h6.89a.47.47,0,0,1,.45.46V196a.45.45,0,0,1-.45.46h-6.89v6.12h8.06a.46.46,0,0,1,.46.46v.69a.46.46,0,0,1-.46.46h-9.45a.46.46,0,0,1-.46-.46V187.82a.45.45,0,0,1,.46-.45h9.45a.45.45,0,0,1,.46.45Zm-.61-37.69a34,34,0,0,0,2.48-6.23,26.93,26.93,0,0,0,1-7.66q0-3-2.87-24.73a157.17,157.17,0,0,1-1.59-20.11,23.64,23.64,0,0,1-.16-2.71,27.16,27.16,0,0,1,3.35-12.76q5.42-10.22,19.31-22.34h3.67l.32,1.91a19.88,19.88,0,0,0-3,6.06,32.06,32.06,0,0,0-1.27,9.9l2.87,45.32A34.45,34.45,0,0,1,359,131q-1.77,4.16-8.78,13.25a54.29,54.29,0,0,1-4.47,5.42c-2.45,2.55-4.25,3.83-5.42,3.83A2.4,2.4,0,0,1,337.63,150.83Zm14.05,52.88a.48.48,0,0,1-.46.46h-1a.47.47,0,0,1-.45-.46V187.82a.46.46,0,0,1,.45-.45h1a.47.47,0,0,1,.46.45Zm10.22.7a7.79,7.79,0,0,1-5.06-1.95.53.53,0,0,1-.15-.81l.36-.46c.24-.31.51-.5.84-.21A6.67,6.67,0,0,0,362,202.8c1.94,0,3.22-1.22,3.22-2.64,0-1.66-1.44-2.64-4.2-3.79s-4.23-2.23-4.23-5c0-1.63,1.3-4.27,5.11-4.27a7.87,7.87,0,0,1,4.11,1.22.54.54,0,0,1,.14.82c-.09.14-.19.31-.29.45a.54.54,0,0,1-.84.22,6.64,6.64,0,0,0-3.14-1.1c-2.54,0-3.31,1.63-3.31,2.64,0,1.6,1.22,2.54,3.24,3.38,3.24,1.32,5.33,2.54,5.33,5.33C367.09,202.58,364.71,204.41,361.9,204.41Zm.39-37.39q-6,6.31-9.5,6.31-1.59,0-5.18-3.43c-2.4-2.29-3.59-4.12-3.59-5.51q0-3.51,8.14-11.49c3-3,5.31-4.47,7-4.47,1.27,0,3.11,1.26,5.5,3.75s3.59,4.45,3.59,5.83Q368.27,160.73,362.29,167Z"/><polyline points="395.94 417.41 380.12 408.75 380.12 417.01"/><polyline points="196.06 417.41 211.88 408.75 211.88 417.01"/><polyline points="403.39 461.29 438.5 461.29 423.06 435.02 438.5 408.75 386.08 408.75 403.39 418.49"/><polyline points="188.61 461.29 153.5 461.29 168.94 435.02 153.5 408.75 205.92 408.75 188.61 418.49"/><path d="M246,450.69a2.91,2.91,0,0,0,3,2.9,5.26,5.26,0,0,0,4.1-2l-4.44-4.65C247.57,447.57,246,448.79,246,450.69Z"/><path d="M310.28,441.26l-3.5,7.87H314c-1.18-2.62-2.33-5.26-3.51-7.87Z"/><path d="M249.06,445c1.08-.65,2.95-1.73,2.95-3.46a2.51,2.51,0,0,0-5,.2c-.05,1,.63,1.84,1.54,2.73Z"/><path d="M191.6,420v52.54H400.7V420Zm65.9,34.59-.28.27a.65.65,0,0,1-1-.08l-2-2.11a6.83,6.83,0,0,1-5.23,2.4,4.3,4.3,0,0,1-4.64-4.41c0-2.6,2-4,3.34-4.8v-.05l-.58-.63a4.88,4.88,0,0,1-1.68-3.5,3.93,3.93,0,0,1,4.25-3.89,3.71,3.71,0,0,1,4.06,3.7c0,2.13-2.16,3.74-3.55,4.61l4,4a9.81,9.81,0,0,0,1-4.28c0-.53.19-.55.55-.55h.58c.5,0,.45.36.45.55a11.36,11.36,0,0,1-1.42,5.4l2.31,2.31C257.82,453.81,258,454.05,257.5,454.6Zm12.87-.21a.47.47,0,0,1-.46.45h-1a.46.46,0,0,1-.45-.45V438.5A.47.47,0,0,1,269,438h1a.48.48,0,0,1,.46.46Zm29.18.45h-1a.5.5,0,0,1-.43-.33L296,442.14h-.09l-4.42,12.68a.49.49,0,0,1-.41.26h-.43a.5.5,0,0,1-.41-.26l-4.46-12.68h-.1l-2.08,12.37a.48.48,0,0,1-.44.33h-1c-.36,0-.5-.24-.43-.57l3.1-16.13a.46.46,0,0,1,.43-.34h.38a.46.46,0,0,1,.41.26l4.75,13.23H291l4.68-13.23a.46.46,0,0,1,.41-.26h.39a.46.46,0,0,1,.43.34L300,454.27C300.06,454.6,299.91,454.84,299.55,454.84Zm18.22,0h-1a.44.44,0,0,1-.41-.26l-1.78-4H306.1l-1.75,4a.44.44,0,0,1-.41.26h-1a.42.42,0,0,1-.41-.62l7.3-16.16a.43.43,0,0,1,.41-.26h.24a.43.43,0,0,1,.41.26l7.25,16.16A.42.42,0,0,1,317.77,454.84Zm15.43,0H332a.64.64,0,0,1-.44-.17l-7.7-8v7.64a.58.58,0,0,1-.58.57h-.69a.57.57,0,0,1-.58-.57V438.62a.57.57,0,0,1,.58-.58h.69a.58.58,0,0,1,.58.58v6.79l7.49-7.13a.69.69,0,0,1,.45-.24H333a.46.46,0,0,1,.29.84L325.66,446l7.95,8.14A.47.47,0,0,1,333.2,454.84Zm15.07-15.65a.46.46,0,0,1-.45.46h-8.07v5.85h6.89a.48.48,0,0,1,.46.46v.7a.46.46,0,0,1-.46.45h-6.89v6.12h8.07a.46.46,0,0,1,.45.46v.7a.45.45,0,0,1-.45.45h-9.46a.46.46,0,0,1-.46-.45V438.5a.47.47,0,0,1,.46-.46h9.46a.46.46,0,0,1,.45.46Z"/><path d="M1.08,304.34l13.86-8.1a1.37,1.37,0,0,1,1.08.09,1,1,0,0,1,.54,1v76a1.06,1.06,0,0,1-.54.9l-14,8.1a.87.87,0,0,1-1.08,0,1.06,1.06,0,0,1-.54-.9l.18-76.14A1.06,1.06,0,0,1,1.08,304.34Zm71.46,4.32a1.06,1.06,0,0,0,.54.9L88,318.2a1.07,1.07,0,0,1,.54.9v31.14a1.06,1.06,0,0,1-.54.9L72.54,359.6l-15.48,9a.9.9,0,0,1-1.08,0l-13.86-7.92a1.12,1.12,0,0,1-.54-1,1.14,1.14,0,0,1,.54-1L56,350.78a.9.9,0,0,1,1.08,0l13.86,7.92a.87.87,0,0,0,1.08,0,1.06,1.06,0,0,0,.54-.9V328.28a1.06,1.06,0,0,0-.54-.9l-13.86-7.92a.9.9,0,0,0-1.08,0l-16,9.18a1.06,1.06,0,0,0-.54.9v29.52a1.06,1.06,0,0,1-.54.9L26.1,368.24a1,1,0,0,1-1.08.09,1,1,0,0,1-.54-1V291.2a1.06,1.06,0,0,1,.54-.9l15.48-8.82,15.48-9a1.67,1.67,0,0,1,1.08,0L72,281.12a1.22,1.22,0,0,1,.54,1.08Zm-32,17.28a.86.86,0,0,0,.54.81,1.37,1.37,0,0,0,1.08.09l14.4-8.28V291.38a.83.83,0,0,0-.54-.9l-13.86-8.1a1.41,1.41,0,0,0-1.08.09.86.86,0,0,0-.54.81Z"/><path d="M118.44,370.22l6.3,3.6a.67.67,0,0,1,.36.63.66.66,0,0,1-.36.63l-13.32,7.74a.44.44,0,0,1-.72,0l-13.5-7.74a.63.63,0,0,1-.36-.63.64.64,0,0,1,.36-.63l5.94-3.42a.73.73,0,0,0,.36-.72V318.92a.59.59,0,0,0-.36-.54L97.2,315a.63.63,0,0,1-.36-.63,1.11,1.11,0,0,1,.36-.81l6.3-3.6,7.2-4a.45.45,0,0,1,.72,0l7,4,6.3,3.6a1.1,1.1,0,0,1,.36.72,1.06,1.06,0,0,1-.36.72l-5.94,3.42a.56.56,0,0,0-.36.54Zm5.94-79.92-13,7.56a1.16,1.16,0,0,1-.9,0l-13-7.56a.7.7,0,0,1-.54-.72,1.06,1.06,0,0,1,.54-.9l13-7.56a1.16,1.16,0,0,1,.9,0l13,7.56a1.06,1.06,0,0,1,.54.9A.7.7,0,0,1,124.38,290.3Z"/><path d="M152.63,258.8a.9.9,0,0,1,1.08,0,1.06,1.06,0,0,1,.54.9V368.6a.83.83,0,0,0,.54.9l5.94,3.42a1.14,1.14,0,0,1,.54,1,.76.76,0,0,1-.54.81l-13.86,8.1a.87.87,0,0,1-1.08,0l-14-8.1a.76.76,0,0,1-.54-.81,1.14,1.14,0,0,1,.54-1l5.94-3.42a.83.83,0,0,0,.54-.9V267.8a1.22,1.22,0,0,1,.54-1.08Z"/><path d="M184.67,258.8a.9.9,0,0,1,1.08,0,1.06,1.06,0,0,1,.54.9V368.6a.83.83,0,0,0,.54.9l5.94,3.42a1.14,1.14,0,0,1,.54,1,.76.76,0,0,1-.54.81l-13.86,8.1a.87.87,0,0,1-1.08,0l-14-8.1a.76.76,0,0,1-.54-.81,1.14,1.14,0,0,1,.54-1l5.94-3.42a.83.83,0,0,0,.54-.9V267.8a1.22,1.22,0,0,1,.54-1.08Z"/><path d="M229.49,323.42v-18a.84.84,0,0,1,.54-.9l13.86-8.1a1,1,0,0,1,1.17,0,1.06,1.06,0,0,1,.63.9v72q0,.54-.72.9l-13.86,7.92a1,1,0,0,1-1.62-.9V323.42Zm88-42.12a.84.84,0,0,1,.54.9v54.54a1.06,1.06,0,0,1-.54.9l-15.66,9-15.48,9a1.67,1.67,0,0,1-1.08,0l-14-8.1a1.32,1.32,0,0,1-.36-1q0-.63.36-.81l14-8.1a.9.9,0,0,1,1.08,0l14,8.1a1,1,0,0,0,.9-.09,1,1,0,0,0,.54-1V291.38a1.24,1.24,0,0,0-.36-.9l-14-7.92a.9.9,0,0,0-1.08,0l-16,9.18a1.06,1.06,0,0,0-.54.9v81.18a.82.82,0,0,1-.54.9l-14,8.1a.87.87,0,0,1-1.08,0,1.06,1.06,0,0,1-.54-.9V291.56a1.22,1.22,0,0,0-.54-1.08l-13.86-7.92a1.12,1.12,0,0,1-.54-1,1.14,1.14,0,0,1,.54-1l13.86-8.1a1.67,1.67,0,0,1,1.08,0l14.94,8.82a.86.86,0,0,1,.72.9V289a1.06,1.06,0,0,0,.54.9q.54.38.9,0L290,279.14l11.34-6.66a1.66,1.66,0,0,1,1.08,0Z"/><path d="M361.61,327l-21.78,12.6a1.07,1.07,0,0,0-.54.9v21.06l21.06,12.06a1.31,1.31,0,0,1,0,1.8l-13,7.38a.87.87,0,0,1-1.08,0L324.89,370.4a.7.7,0,0,1-.54-.72V323.24a.71.71,0,0,1,.54-.72l14-8.28.54-.18,14.22-8.28a.9.9,0,0,1,1.08,0l20.34,11.7a1.07,1.07,0,0,1,.54.9,1.06,1.06,0,0,1-.54.9ZM339.83,315a1.07,1.07,0,0,0-.54.9V337.1a.86.86,0,0,0,.54.81,1,1,0,0,0,.9.09l18.54-10.62a1.22,1.22,0,0,0,.36-.9,1.24,1.24,0,0,0-.36-.9L340.73,315Q340.37,314.6,339.83,315Z"/><path d="M441.89,373.64a1,1,0,0,1,0,1.8l-13,7.38a.87.87,0,0,1-1.08,0l-14.4-8.28-14.4,8.28a.87.87,0,0,1-1.08,0l-13.86-8.1a.7.7,0,0,1-.54-.72V323.24a.71.71,0,0,1,.54-.72l14.4-8.46,14.4-8.28a.9.9,0,0,1,1.08,0l13.86,8.1a.71.71,0,0,1,.54.72v50.76a1.06,1.06,0,0,0,.54.9Zm-28.44-.9v-49.5a.71.71,0,0,0-.54-.72L400,315a.65.65,0,0,0-.9,0,1.07,1.07,0,0,0-.54.9v49.5a.71.71,0,0,0,.54.72l13,7.56q.36.36.9,0A1.06,1.06,0,0,0,413.45,372.74Z"/><path d="M465.46,318.2a.58.58,0,0,0-.36.54v51.48l6.48,3.78a.58.58,0,0,1,.36.54.57.57,0,0,1-.36.54L457.9,383q-.36.18-.54,0l-13.68-7.92a.57.57,0,0,1-.36-.54.58.58,0,0,1,.36-.54l6.12-3.6a.56.56,0,0,0,.36-.54V318.74c0-.12-.12-.29-.36-.54l-6.12-3.6a.52.52,0,0,1-.36-.45q0-.27.36-.45l6.48-3.78,7.2-4.14q.18-.16.54,0l7.2,4.14,3.42,1.8q.18.18.54,0l10.62-5.94q.18-.16.54,0l13.68,7.92q.36.18.36.45a.52.52,0,0,1-.36.45l-13.68,7.92q-.36.18-.54,0l-10.62-6.12h-.54Z"/><path d="M507.76,315a1.37,1.37,0,0,0-1.08.09.86.86,0,0,0-.54.81v50h0l14.58-8.46a1.26,1.26,0,0,1,.9,0l13,7.56a1.07,1.07,0,0,1,.54.9,1.06,1.06,0,0,1-.54.9l-4.14,2.34-23.76,13.68q-.54.38-.9,0l-14-8.1a.7.7,0,0,1-.54-.72V323.24a.71.71,0,0,1,.54-.72l14.4-8.46,14.58-8.28q.36-.36.9,0l13,7.38a1.14,1.14,0,0,1,.54,1,.76.76,0,0,1-.54.81l-13,7.56a1.16,1.16,0,0,1-.9,0Z"/><path d="M573.28,327l-21.78,12.6a1.07,1.07,0,0,0-.54.9v21.06L572,373.64a1.3,1.3,0,0,1,0,1.8l-13,7.38a.87.87,0,0,1-1.08,0L536.56,370.4a.7.7,0,0,1-.54-.72V323.24a.71.71,0,0,1,.54-.72l14-8.28.54-.18,14.22-8.28a.9.9,0,0,1,1.08,0l20.34,11.7a1.07,1.07,0,0,1,.54.9,1.06,1.06,0,0,1-.54.9ZM551.5,315a1.07,1.07,0,0,0-.54.9V337.1a.86.86,0,0,0,.54.81,1,1,0,0,0,.9.09l18.54-10.62a1.22,1.22,0,0,0,.36-.9,1.24,1.24,0,0,0-.36-.9L552.4,315Q552,314.6,551.5,315Z"/><path d="M97.55,507.47c.07,0,.1.07.1.2v45.8a.33.33,0,0,0,.2.3l8.3,4.7a.5.5,0,0,1,0,.6l-8.3,4.8h-.3l-8.6-5a.45.45,0,0,1-.1-.3v-45.8c0-.07-.06-.13-.2-.2l-8.2-4.8c-.13-.07-.2-.15-.2-.25s.07-.18.2-.25l8.2-4.8q.21-.11.3,0Zm4.6,3.2c0-.4.17-.5.5-.3l8.2,4.7a.32.32,0,0,1,.2.3v30.4a.32.32,0,0,1-.2.3l-8.2,4.8c-.33.13-.5,0-.5-.3Z"/><path d="M147.25,525.57v30.9a.69.69,0,0,0,.2.5l3.1,1.7a.57.57,0,0,1,0,1l-7.2,4.2a.88.88,0,0,1-.6,0l-7.2-4.2a.73.73,0,0,1,0-1l3.1-1.7a.58.58,0,0,0,.3-.5v-26.1l-7.5-4.3a.62.62,0,0,0-.55,0,.5.5,0,0,0-.25.45v29.9a.69.69,0,0,0,.2.5l3.1,1.7a.57.57,0,0,1,0,1l-7.2,4.2a.88.88,0,0,1-.6,0l-7.2-4.2a.73.73,0,0,1,0-1l3.1-1.7a.58.58,0,0,0,.3-.5v-25.7a.46.46,0,0,0-.3-.5l-7.2-4.2a.49.49,0,0,1,0-.9l7.2-4.2c.2-.13.37-.13.5,0l7.8,4.5a.62.62,0,0,0,.5,0l2.8-1.6,5-2.9c.2-.13.37-.13.5,0l8,4.6Z"/><path d="M172.75,525.37a.82.82,0,0,1-.4.1h-6.9a.71.71,0,0,0-.8.8v28.2a.73.73,0,0,0,.4.7l6.3,3.6a.67.67,0,0,1,.4.65.9.9,0,0,1-.4.75l-6.3,3.6a.67.67,0,0,1-.7,0l-7.1-4.1a.73.73,0,0,1-.4-.7v-32.7a.71.71,0,0,0-.8-.8H152a.75.75,0,0,1-.4-1.4l4.9-2.9a.71.71,0,0,0,.4-.7v-3.6a.88.88,0,0,1,.4-.7l6.3-3.6a.87.87,0,0,1,.8,0,.71.71,0,0,1,.4.7v6.9c0,.53.24.8.7.8h12a.71.71,0,0,1,.75.6.73.73,0,0,1-.35.9Z"/><path d="M199.25,532.77l-12.1,7a.58.58,0,0,0-.3.5V552l11.7,6.7a.73.73,0,0,1,0,1l-7.2,4.1a.51.51,0,0,1-.6,0l-11.9-6.9a.39.39,0,0,1-.3-.4v-25.8a.39.39,0,0,1,.3-.4l7.8-4.6.3-.1,7.9-4.6a.51.51,0,0,1,.6,0l11.3,6.5a.57.57,0,0,1,0,1Zm-12.1-6.7a.58.58,0,0,0-.3.5v11.8a.48.48,0,0,0,.3.45.54.54,0,0,0,.5,0L198,533a.72.72,0,0,0,0-1l-10.3-5.9C187.52,525.94,187.35,525.94,187.15,526.07Z"/><path d="M221.85,527.87a.33.33,0,0,0-.2.3v28.6l3.6,2.1a.32.32,0,0,1,0,.6l-7.6,4.4q-.19.11-.3,0l-7.6-4.4a.32.32,0,0,1,0-.6l3.4-2a.32.32,0,0,0,.2-.3v-28.4c0-.07-.06-.17-.2-.3l-3.4-2c-.13-.07-.2-.15-.2-.25s.07-.18.2-.25l3.6-2.1,4-2.3q.1-.11.3,0l4,2.3,1.9,1q.1.11.3,0l5.9-3.3q.1-.11.3,0l7.6,4.4c.14.07.2.15.2.25s-.06.18-.2.25l-7.6,4.4q-.2.11-.3,0l-5.9-3.4h-.3Z"/><path d="M269,525.57v30.9a.69.69,0,0,0,.2.5l3.1,1.7a.57.57,0,0,1,0,1l-7.2,4.2a.88.88,0,0,1-.6,0l-7.2-4.2a.72.72,0,0,1,0-1l3.1-1.7a.58.58,0,0,0,.3-.5v-26.1l-7.5-4.3a.62.62,0,0,0-.55,0,.5.5,0,0,0-.25.45v29.9a.69.69,0,0,0,.2.5l3.1,1.7a.57.57,0,0,1,0,1l-7.2,4.2a.88.88,0,0,1-.6,0l-7.2-4.2a.73.73,0,0,1,0-1l3.1-1.7a.58.58,0,0,0,.3-.5v-25.7a.46.46,0,0,0-.3-.5l-7.2-4.2a.49.49,0,0,1,0-.9l7.2-4.2c.2-.13.37-.13.5,0l7.8,4.5a.62.62,0,0,0,.5,0l2.8-1.6,5-2.9c.2-.13.37-.13.5,0l8,4.6Z"/><path d="M295.65,532.77l-12.1,7a.58.58,0,0,0-.3.5V552l11.7,6.7a.73.73,0,0,1,0,1l-7.2,4.1a.51.51,0,0,1-.6,0l-11.9-6.9a.39.39,0,0,1-.3-.4v-25.8a.39.39,0,0,1,.3-.4l7.8-4.6.3-.1,7.9-4.6a.51.51,0,0,1,.6,0l11.3,6.5a.57.57,0,0,1,0,1Zm-12.1-6.7a.58.58,0,0,0-.3.5v11.8a.48.48,0,0,0,.3.45.54.54,0,0,0,.5,0l10.3-5.9a.72.72,0,0,0,0-1l-10.3-5.9C283.92,525.94,283.75,525.94,283.55,526.07Z"/><path d="M325.45,525.37a.85.85,0,0,1-.4.1h-6.9a.71.71,0,0,0-.8.8v28.2a.71.71,0,0,0,.4.7l6.3,3.6a.67.67,0,0,1,.4.65.9.9,0,0,1-.4.75l-6.3,3.6a.67.67,0,0,1-.7,0l-7.1-4.1a.71.71,0,0,1-.4-.7v-32.7a.71.71,0,0,0-.8-.8h-4.1a.75.75,0,0,1-.4-1.4l4.9-2.9a.71.71,0,0,0,.4-.7v-3.6a.85.85,0,0,1,.4-.7l6.3-3.6a.87.87,0,0,1,.8,0,.71.71,0,0,1,.4.7v6.9c0,.53.23.8.7.8h12a.71.71,0,0,1,.75.6.75.75,0,0,1-.35.9Z"/><path d="M386.65,538.57l.1,14.7a.58.58,0,0,1-.3.5l-8.6,5-8.6,4.9a.51.51,0,0,1-.6,0l-8.6-4.9-8.6-5a.46.46,0,0,1-.3-.5v-9.6a.58.58,0,0,1,.3-.5l7.7-4.4a.57.57,0,0,1,.6,0,.56.56,0,0,1,.3.55v8.9a.58.58,0,0,0,.3.5l8.6,5,8,4.6a.88.88,0,0,0,.6,0,.67.67,0,0,0,.3-.6v-14a.58.58,0,0,0-.3-.5l-8.6-4.9-8.9-5.2-8.6-4.9a.58.58,0,0,1-.3-.5V513a.46.46,0,0,1,.3-.5l1.8-1.1,11.9-6.9,3.5-2a.88.88,0,0,1,.6,0l8.5,5,8.6,5a.46.46,0,0,1,.3.5v9.6a.58.58,0,0,1-.3.5l-7.7,4.4a.57.57,0,0,1-.6,0,.56.56,0,0,1-.3-.55v-8.9a.69.69,0,0,0-.2-.5l-8.6-5-8-4.6a.51.51,0,0,0-.6,0,.58.58,0,0,0-.3.5v14a.67.67,0,0,0,.3.6L369,528l8.8,5.1,8.6,5A.58.58,0,0,1,386.65,538.57Z"/><path d="M410.75,525.37a.85.85,0,0,1-.4.1h-6.9a.71.71,0,0,0-.8.8v28.2a.71.71,0,0,0,.4.7l6.3,3.6a.67.67,0,0,1,.4.65.9.9,0,0,1-.4.75l-6.3,3.6a.67.67,0,0,1-.7,0l-7.1-4.1a.71.71,0,0,1-.4-.7v-32.7a.71.71,0,0,0-.8-.8H390a.75.75,0,0,1-.4-1.4l4.9-2.9a.73.73,0,0,0,.4-.7v-3.6a.85.85,0,0,1,.4-.7l6.3-3.6a.87.87,0,0,1,.8,0,.71.71,0,0,1,.4.7v6.9c0,.53.23.8.7.8h12a.71.71,0,0,1,.75.6.75.75,0,0,1-.35.9Z"/><path d="M445.25,527.87a.39.39,0,0,0-.3.4v25.8a.39.39,0,0,0,.3.4l7.2,4.2a.57.57,0,0,1,0,1l-7.2,4.1c-.2.13-.37.13-.5,0l-7.8-4.5a.62.62,0,0,0-.5,0l-2.8,1.7-5,2.8c-.2.13-.37.13-.5,0l-8.1-4.6v-30.9a.41.41,0,0,0-.2-.4l-3.1-1.8a.57.57,0,0,1,0-1L424,521a.51.51,0,0,1,.6,0l7.2,4.1a.72.72,0,0,1,0,1l-3.1,1.8a.39.39,0,0,0-.3.4v26.1l7.5,4.3a.49.49,0,0,0,.55.05.6.6,0,0,0,.25-.55v-29.9a.41.41,0,0,0-.2-.4l-3.1-1.8a.57.57,0,0,1,0-1l7.2-4.1a.51.51,0,0,1,.6,0l7.2,4.1a.73.73,0,0,1,0,1Z"/><path d="M471.65,502.32a.56.56,0,0,0-.3.55v17.6c0,.33.2.5.6.5h12.5a.48.48,0,0,1,.5.4.51.51,0,0,1-.2.6l-6.4,3.7a.4.4,0,0,1-.3.1h-6.2a.44.44,0,0,0-.5.5v30.2a.58.58,0,0,0,.3.5l3,1.7a.57.57,0,0,1,0,1l-7.2,4.1a.37.37,0,0,1-.5,0l-7.2-4.1a.73.73,0,0,1,0-1l3.1-1.7a.69.69,0,0,0,.2-.5v-30.2a.44.44,0,0,0-.5-.5h-7c-.34,0-.54-.13-.6-.4a.63.63,0,0,1,.3-.7l6.3-3.6a.69.69,0,0,1,.3-.1h.7a.44.44,0,0,0,.5-.5V507a.58.58,0,0,1,.3-.5l8-4.6,8-4.6a.37.37,0,0,1,.5,0l7.2,4.1a.57.57,0,0,1,0,1l-7.2,4.1a.37.37,0,0,1-.5,0l-7.2-4.1A.4.4,0,0,0,471.65,502.32Z"/><path d="M500.65,502.32a.56.56,0,0,0-.3.55v17.6c0,.33.2.5.6.5h12.5a.48.48,0,0,1,.5.4.51.51,0,0,1-.2.6l-6.4,3.7a.4.4,0,0,1-.3.1h-6.2a.44.44,0,0,0-.5.5v30.2a.58.58,0,0,0,.3.5l3,1.7a.57.57,0,0,1,0,1l-7.2,4.1a.37.37,0,0,1-.5,0l-7.2-4.1a.73.73,0,0,1,0-1l3.1-1.7a.69.69,0,0,0,.2-.5v-30.2a.44.44,0,0,0-.5-.5h-7c-.34,0-.54-.13-.6-.4a.63.63,0,0,1,.3-.7l6.3-3.6a.69.69,0,0,1,.3-.1h.7a.44.44,0,0,0,.5-.5V507a.58.58,0,0,1,.3-.5l8-4.6,8-4.6a.37.37,0,0,1,.5,0l7.2,4.1a.57.57,0,0,1,0,1l-7.2,4.1a.37.37,0,0,1-.5,0l-7.2-4.1A.4.4,0,0,0,500.65,502.32Z"/><path d="M114,588.42c0-7.54,3.22-9.32,6-9.46a.38.38,0,0,1,.45.36l.07,1.58a.41.41,0,0,1-.28.44c-2.36.62-3.24,3.09-3.24,7.08s.88,6.43,3.24,7.05a.4.4,0,0,1,.28.46l-.07,1.56a.41.41,0,0,1-.45.38C117.18,597.68,114,596,114,588.42Z"/><path d="M131.53,587.6v-.05L131,587a4.8,4.8,0,0,1-1.64-3.46c0-1.82,1.52-3.88,4.54-3.88,2.69,0,4.54,1.75,4.54,3.91,0,2.47-2.45,3.93-2.93,4.37l2.76,2.78a10.37,10.37,0,0,0,.86-2.66c.1-.51.24-.77.8-.6l1.32.38c.62.17.45.7.4.94a16.13,16.13,0,0,1-1.48,3.81l2.13,2c.29.29.53.55-.05,1.1l-1,1a.7.7,0,0,1-1.06-.07l-1.72-1.75a7,7,0,0,1-5.24,2c-3.05,0-5.06-2.07-5.06-4.52C128.22,589.26,131.1,587.87,131.53,587.6Zm2.07,6.77a3.92,3.92,0,0,0,3.09-1.42l-3.58-3.79a3.45,3.45,0,0,0-2,3A2.35,2.35,0,0,0,133.6,594.37Zm2.28-10.66a1.92,1.92,0,0,0-2-1.8,1.64,1.64,0,0,0-1.77,1.63c0,.84.53,1.4,1.25,2.16l.52.53C134.19,586,135.88,585.2,135.88,583.71Z"/><path d="M149.48,594.35l.87-1.49a.55.55,0,0,1,.81-.17,8,8,0,0,0,3.63,1.49,2,2,0,0,0,2.18-1.85c0-1.22-1-2.07-3.05-2.88-2.25-.91-4.51-2.35-4.51-5.19,0-2.13,1.58-4.6,5.4-4.6a8.46,8.46,0,0,1,4.8,1.6.62.62,0,0,1,.15.8l-.92,1.36a.63.63,0,0,1-.84.29,7.85,7.85,0,0,0-3.33-1.32,1.92,1.92,0,0,0-2.12,1.68c0,1.13.89,1.9,2.84,2.69,2.32.94,5,2.33,5,5.43,0,2.47-2.13,4.75-5.52,4.75a7.76,7.76,0,0,1-5.28-1.87C149.39,594.85,149.27,594.73,149.48,594.35Z"/><path d="M170.89,579.66a8.64,8.64,0,1,1-8.62,8.66A8.62,8.62,0,0,1,170.89,579.66Zm0,14.16a5.52,5.52,0,1,0-5.5-5.5A5.53,5.53,0,0,0,170.89,593.82Z"/><path d="M184.43,580a.39.39,0,0,1,.43-.36h.38a.43.43,0,0,1,.41.24l5.28,11.32H191l5.28-11.32a.41.41,0,0,1,.41-.24h.39a.4.4,0,0,1,.43.36l2.83,16.13a.42.42,0,0,1-.43.55h-2.19a.52.52,0,0,1-.45-.36l-1.42-9.1h-.07l-4.2,9.43a.41.41,0,0,1-.41.27h-.43a.42.42,0,0,1-.41-.27l-4.25-9.43H186l-1.39,9.1a.47.47,0,0,1-.43.36H182a.44.44,0,0,1-.46-.55Z"/><path d="M203.63,580.35a.45.45,0,0,1,.45-.45h9.77a.46.46,0,0,1,.46.45v2a.47.47,0,0,1-.46.46h-7.1v3.93h5.92a.48.48,0,0,1,.46.46v2a.47.47,0,0,1-.46.46h-5.92v4.2h7.1a.46.46,0,0,1,.46.45v2a.47.47,0,0,1-.46.46h-9.77a.46.46,0,0,1-.45-.46Z"/><path d="M223,580.09a.45.45,0,0,1,.46-.43h.6l10,10.6h0v-9.91a.45.45,0,0,1,.45-.45h2.21a.47.47,0,0,1,.46.45v16.16a.45.45,0,0,1-.46.43h-.58l-10-11h0v10.32a.46.46,0,0,1-.46.46H223.5a.48.48,0,0,1-.46-.46Z"/><path d="M249,579.66a8.64,8.64,0,1,1-8.62,8.66A8.62,8.62,0,0,1,249,579.66Zm0,14.16a5.52,5.52,0,1,0-5.5-5.5A5.54,5.54,0,0,0,249,593.82Z"/><path d="M262.88,582.78h-3.67a.46.46,0,0,1-.46-.46v-2a.45.45,0,0,1,.46-.45H269.7a.45.45,0,0,1,.45.45v2a.46.46,0,0,1-.45.46H266v13.46a.48.48,0,0,1-.46.46h-2.23a.48.48,0,0,1-.46-.46Z"/><path d="M271.19,589.5v-1.61a.44.44,0,0,1,.45-.46H277a.44.44,0,0,1,.46.46v1.61a.43.43,0,0,1-.46.43h-5.35A.43.43,0,0,1,271.19,589.5Z"/><path d="M280.67,580.35a.46.46,0,0,1,.45-.45h2.23a.47.47,0,0,1,.46.45v15.89a.48.48,0,0,1-.46.46h-2.23a.47.47,0,0,1-.45-.46Z"/><path d="M288.18,580.09a.44.44,0,0,1,.45-.43h.6l10,10.6h0v-9.91a.45.45,0,0,1,.46-.45h2.21a.46.46,0,0,1,.45.45v16.16a.44.44,0,0,1-.45.43h-.58l-10-11h0v10.32a.46.46,0,0,1-.45.46h-2.19a.47.47,0,0,1-.45-.46Z"/><path d="M309,582.78h-3.67a.46.46,0,0,1-.45-.46v-2a.45.45,0,0,1,.45-.45H315.8a.45.45,0,0,1,.46.45v2a.46.46,0,0,1-.46.46h-3.67v13.46a.48.48,0,0,1-.46.46h-2.23a.48.48,0,0,1-.46-.46Z"/><path d="M318.75,580.35a.45.45,0,0,1,.46-.45H329a.45.45,0,0,1,.45.45v2a.46.46,0,0,1-.45.46h-7.11v3.93h5.93a.48.48,0,0,1,.46.46v2a.47.47,0,0,1-.46.46h-5.93v4.2H329a.45.45,0,0,1,.45.45v2a.46.46,0,0,1-.45.46h-9.77a.46.46,0,0,1-.46-.46Z"/><path d="M332.86,580.35a.46.46,0,0,1,.46-.45h6.86a5.2,5.2,0,0,1,5.24,5.16,5.33,5.33,0,0,1-3.55,4.85l3.28,6.09a.46.46,0,0,1-.4.7h-2.53a.41.41,0,0,1-.38-.22l-3.19-6.36H336v6.12a.47.47,0,0,1-.45.46h-2.21a.47.47,0,0,1-.46-.46Zm7.06,7.2a2.45,2.45,0,0,0,2.38-2.45,2.39,2.39,0,0,0-2.38-2.32H336v4.77Z"/><path d="M348.37,580.09a.44.44,0,0,1,.45-.43h.6l10,10.6h0v-9.91a.45.45,0,0,1,.46-.45h2.21a.46.46,0,0,1,.45.45v16.16a.44.44,0,0,1-.45.43h-.58l-10-11h0v10.32a.46.46,0,0,1-.45.46h-2.19a.47.47,0,0,1-.45-.46Z"/><path d="M366.92,580.35a.45.45,0,0,1,.46-.45h9.76a.45.45,0,0,1,.46.45v2a.46.46,0,0,1-.46.46H370v3.93H376a.47.47,0,0,1,.45.46v2a.46.46,0,0,1-.45.46H370v4.2h7.1a.45.45,0,0,1,.46.45v2a.46.46,0,0,1-.46.46h-9.76a.46.46,0,0,1-.46-.46Z"/><path d="M383.29,582.78h-3.67a.46.46,0,0,1-.46-.46v-2a.45.45,0,0,1,.46-.45H390.1a.45.45,0,0,1,.46.45v2a.46.46,0,0,1-.46.46h-3.67v13.46a.47.47,0,0,1-.45.46h-2.24a.47.47,0,0,1-.45-.46Z"/><path d="M397.38,594.35l.86-1.49a.56.56,0,0,1,.82-.17,7.94,7.94,0,0,0,3.62,1.49,2,2,0,0,0,2.18-1.85c0-1.22-1-2.07-3-2.88-2.26-.91-4.52-2.35-4.52-5.19,0-2.13,1.59-4.6,5.4-4.6a8.46,8.46,0,0,1,4.8,1.6.6.6,0,0,1,.15.8l-.91,1.36c-.2.29-.56.48-.84.29a8,8,0,0,0-3.34-1.32,1.91,1.91,0,0,0-2.11,1.68c0,1.13.89,1.9,2.83,2.69,2.33.94,5,2.33,5,5.43,0,2.47-2.14,4.75-5.52,4.75a7.74,7.74,0,0,1-5.28-1.87C397.28,594.85,397.16,594.73,397.38,594.35Z"/><path d="M413.62,582.78H410a.46.46,0,0,1-.45-.46v-2a.45.45,0,0,1,.45-.45h10.49a.46.46,0,0,1,.46.45v2a.47.47,0,0,1-.46.46h-3.67v13.46a.48.48,0,0,1-.46.46h-2.23a.48.48,0,0,1-.46-.46Z"/><path d="M423.15,580.35a.47.47,0,0,1,.46-.45h2.28a.45.45,0,0,1,.45.45v9.82a3.5,3.5,0,1,0,7,0v-9.84a.45.45,0,0,1,.45-.45h2.28a.47.47,0,0,1,.46.45v10a6.69,6.69,0,0,1-13.37,0Z"/><path d="M440.65,580.35a.45.45,0,0,1,.45-.45h9.77a.45.45,0,0,1,.46.45v2a.46.46,0,0,1-.46.46h-7.1v4.51h5.93a.46.46,0,0,1,.45.46v2a.47.47,0,0,1-.45.46h-5.93v6.07a.48.48,0,0,1-.46.46H441.1a.46.46,0,0,1-.45-.46Z"/><path d="M454.18,580.35a.46.46,0,0,1,.46-.45h9.77a.45.45,0,0,1,.45.45v2a.46.46,0,0,1-.45.46H457.3v4.51h5.93a.47.47,0,0,1,.46.46v2a.48.48,0,0,1-.46.46H457.3v6.07a.47.47,0,0,1-.45.46h-2.21a.47.47,0,0,1-.46-.46Z"/><path d="M471.82,595.47c2.35-.62,3.24-3.05,3.24-7.05s-.89-6.46-3.24-7.08a.41.41,0,0,1-.29-.44l.08-1.58a.38.38,0,0,1,.45-.36c2.74.14,5.95,1.92,5.95,9.46s-3.21,9.26-5.95,9.45a.41.41,0,0,1-.45-.38l-.08-1.56A.42.42,0,0,1,471.82,595.47Z"/></svg>
