<svg id="hi_my_name_is" data-name="hi_my_name_is" xmlns="http://www.w3.org/2000/svg" viewBox="0 0 256 256"><title>svgs</title><path d="M128,4a124,124,0,0,1,87.68,211.68A124,124,0,1,1,40.32,40.32,123.19,123.19,0,0,1,128,4m0-4A128,128,0,1,0,256,128,128,128,0,0,0,128,0Z"/><path d="M126.27,190.26l-3.5,7.87H130c-1.18-2.62-2.33-5.26-3.51-7.87Z"/><path d="M128,7A121,121,0,1,0,249,128,121,121,0,0,0,128,7Zm8.1,77.94,10.8-6.3a1,1,0,0,1,.75,0l10.8,6.3a.88.88,0,0,1,.45.75.59.59,0,0,1-.45.6l-10.8,6.3a1,1,0,0,1-.75,0l-10.8-6.3a.59.59,0,0,1-.45-.6A.88.88,0,0,1,136.1,84.94Zm-82.8,43.8V98.89a.71.71,0,0,1,.6-.75l11.4-6.6a.86.86,0,0,1,1,0,1,1,0,0,1,.53.9v42.9a1,1,0,0,1-.53.9.86.86,0,0,1-1,0l-11.4-6.6A1,1,0,0,1,53.3,128.74Zm21.59,75.1h-1a.5.5,0,0,1-.43-.33l-2.14-12.37h-.09l-4.42,12.68a.49.49,0,0,1-.41.26H66a.5.5,0,0,1-.41-.26l-4.46-12.68H61L59,203.51a.47.47,0,0,1-.43.33h-1c-.36,0-.5-.24-.43-.57l3.1-16.13a.45.45,0,0,1,.43-.34H61a.46.46,0,0,1,.41.26l4.75,13.23h.12L71,187.06a.46.46,0,0,1,.41-.26h.38a.46.46,0,0,1,.44.34l3.09,16.13C75.4,203.6,75.25,203.84,74.89,203.84Zm16-16.1-5.86,8v7.66a.46.46,0,0,1-.45.45h-.94a.46.46,0,0,1-.46-.45v-7.64l-5.78-8a.45.45,0,0,1,.38-.7h1.13a.53.53,0,0,1,.39.22L84.15,194,89,187.26a.51.51,0,0,1,.39-.22h1.12A.45.45,0,0,1,90.9,187.74Zm9-31.55-13-7.5-13.05,7.5q-.45.3-.75,0l-12-6.9a.75.75,0,0,1,0-1.2l12-6.9q.45-.3.75,0l13.05,7.5,13-7.5q.3-.3.75,0l12,6.9a.75.75,0,0,1,0,1.2l-12,6.9Q100.25,156.49,100,156.19Zm14.83,47.46a.45.45,0,0,1-.46.43h-.43l-11-13.75h0v13.06a.45.45,0,0,1-.46.45h-.84a.46.46,0,0,1-.45-.45V187.23a.44.44,0,0,1,.45-.43h.6L113,200.29h0V187.5a.47.47,0,0,1,.46-.46h.84a.48.48,0,0,1,.46.46Zm-.58-40.26a.88.88,0,0,1-.45-.75v-44.4a.69.69,0,0,0-.45-.75l-11.7-6.75a.75.75,0,0,0-.9,0l-13.35,7.8a.88.88,0,0,0-.45.75v13.35a.69.69,0,0,1-.45.75L74.9,140.14a.75.75,0,0,1-.9,0,.88.88,0,0,1-.45-.75V87.19a.88.88,0,0,1,.45-.75l.6-.3V86l17.1-9.75,8.1-4.8a.75.75,0,0,1,.9,0l11.7,6.75a1,1,0,0,1,.45.83.63.63,0,0,1-.45.67l-11.7,6.75a.75.75,0,0,1-.9,0L88.25,79.69a.75.75,0,0,0-.9,0,.88.88,0,0,0-.45.75v35.7a.84.84,0,0,0,1.35.75L100.4,110h-.15l13-7.5a.75.75,0,0,1,.9,0l12.45,7.2a.88.88,0,0,1,.45.75v45.45a.69.69,0,0,1-.45.75l-11.55,6.75A.75.75,0,0,1,114.2,163.39Zm19.56,40.45h-1a.44.44,0,0,1-.41-.26l-1.77-4H122.1l-1.76,4a.42.42,0,0,1-.4.26h-1a.42.42,0,0,1-.41-.62l7.29-16.16a.45.45,0,0,1,.41-.26h.24a.43.43,0,0,1,.41.26l7.25,16.16A.42.42,0,0,1,133.76,203.84Zm20.78,0h-1a.5.5,0,0,1-.43-.33L151,191.14h-.1l-4.42,12.68a.47.47,0,0,1-.4.26h-.44a.47.47,0,0,1-.4-.26l-4.47-12.68h-.09l-2.09,12.37a.48.48,0,0,1-.43.33h-1c-.35,0-.5-.24-.43-.57l3.1-16.13a.46.46,0,0,1,.43-.34h.39a.45.45,0,0,1,.4.26l4.76,13.23H146l4.68-13.23a.45.45,0,0,1,.4-.26h.39a.46.46,0,0,1,.43.34l3.1,16.13C155.05,203.6,154.91,203.84,154.54,203.84Zm4.21-48a.54.54,0,0,1,.3.53.53.53,0,0,1-.3.52l-11.1,6.45a.37.37,0,0,1-.6,0l-11.25-6.45a.52.52,0,0,1-.3-.52.53.53,0,0,1,.3-.53l4.95-2.85a.6.6,0,0,0,.3-.6v-42.3a.48.48,0,0,0-.3-.45l-4.95-2.85a.52.52,0,0,1-.3-.52.91.91,0,0,1,.3-.68l5.25-3,6-3.3a.37.37,0,0,1,.6,0l5.85,3.3,5.25,3a.75.75,0,0,1,0,1.2l-4.95,2.85a.47.47,0,0,0-.3.45v42.75Zm11.49,32.3a.46.46,0,0,1-.46.46h-8.06v5.85h6.89a.47.47,0,0,1,.45.46v.7a.45.45,0,0,1-.45.45h-6.89v6.12h8.06a.46.46,0,0,1,.46.46v.7a.45.45,0,0,1-.46.45h-9.45a.45.45,0,0,1-.46-.45V187.5a.46.46,0,0,1,.46-.46h9.45a.46.46,0,0,1,.46.46Zm-.61-37.69a34.15,34.15,0,0,0,2.48-6.22,27,27,0,0,0,1-7.66q0-3-2.87-24.74a157,157,0,0,1-1.59-20.1,23.77,23.77,0,0,1-.16-2.71,27.16,27.16,0,0,1,3.35-12.77Q177.28,66.08,191.18,54h3.67l.32,1.91a19.83,19.83,0,0,0-3,6.07,31.94,31.94,0,0,0-1.27,9.89l2.87,45.32A34.42,34.42,0,0,1,191,130.71q-1.77,4.15-8.78,13.25a54.29,54.29,0,0,1-4.47,5.42c-2.45,2.56-4.25,3.83-5.42,3.83A2.4,2.4,0,0,1,169.63,150.5Zm14.05,52.89a.47.47,0,0,1-.46.45h-1a.46.46,0,0,1-.45-.45V187.5a.47.47,0,0,1,.45-.46h1a.48.48,0,0,1,.46.46Zm10.22.69a7.8,7.8,0,0,1-5.06-1.94.54.54,0,0,1-.15-.82c.12-.14.24-.31.36-.45.24-.32.51-.51.84-.22a6.67,6.67,0,0,0,4.06,1.82c1.94,0,3.22-1.22,3.22-2.64,0-1.65-1.44-2.64-4.2-3.79s-4.23-2.23-4.23-5c0-1.63,1.3-4.27,5.11-4.27A7.87,7.87,0,0,1,198,188a.54.54,0,0,1,.14.82l-.29.46a.54.54,0,0,1-.84.21,6.76,6.76,0,0,0-3.14-1.1c-2.54,0-3.31,1.63-3.31,2.64,0,1.61,1.22,2.54,3.24,3.38,3.24,1.32,5.33,2.55,5.33,5.33C199.09,202.26,196.71,204.08,193.9,204.08Zm.39-37.38q-6,6.3-9.5,6.3-1.59,0-5.18-3.43c-2.4-2.29-3.59-4.12-3.59-5.5q0-3.51,8.14-11.49,4.46-4.47,7-4.47c1.27,0,3.11,1.25,5.5,3.75s3.59,4.44,3.59,5.82Q200.27,160.4,194.29,166.7Z"/></svg>
